<?xml version="1.0" encoding="utf-8"?>
<!-- Generator: Adobe Illustrator 17.1.0, SVG Export Plug-In . SVG Version: 6.00 Build 0)  -->
<!DOCTYPE svg PUBLIC "-//W3C//DTD SVG 1.1//EN" "http://www.w3.org/Graphics/SVG/1.1/DTD/svg11.dtd">
<svg version="1.1" id="Layer_1" xmlns="http://www.w3.org/2000/svg" xmlns:xlink="http://www.w3.org/1999/xlink" x="0px" y="0px"
	 viewBox="-92 -92 216 216" enable-background="new -92 -92 216 216" xml:space="preserve">
<path id="path6" fill="#0F7391" d="M112.4-20.9v-31.3l-3.9-3.6H-65.8v144h178.3v-4.9l6.7-6.9v-90.8L112.4-20.9z M-24.2-45.3
	c-2.5,0-4.4-2-4.4-4.4c0-2.5,2-4.4,4.4-4.4c2.5,0,4.4,2,4.4,4.4C-19.7-47.2-21.7-45.3-24.2-45.3z M112.7-11.3c1.6,0,2.9,1.3,2.9,2.9
	c0,1.6-1.3,2.9-2.9,2.9c-1.6,0-2.9-1.3-2.9-2.9C109.8-10,111.1-11.3,112.7-11.3z M113.2,71.3c-2.3,0-4.2-1.9-4.2-4.2
	s1.9-4.2,4.2-4.2c2.3,0,4.2,1.9,4.2,4.2C117.3,69.5,115.5,71.3,113.2,71.3z"/>
<path id="path8" fill="#02809E" d="M10.4,11.1c0-1-0.7-1.8-1.7-1.9v0H2.1c-1.1,0-2,0.9-2,2c0,1.1,0.9,2,2,2h6.7v0
	C9.7,12.8,10.4,12,10.4,11.1z"/>
<path id="path10" fill="#02809E" d="M10.4,5.2c0-1-0.7-1.8-1.7-1.9v0H2.1c-1.1,0-2,0.9-2,2c0,1.1,0.9,2,2,2h6.7v0
	C9.7,7,10.4,6.1,10.4,5.2z"/>
<path id="path12" fill="#02809E" d="M10.4-0.7c0-1-0.7-1.8-1.7-1.9v0H2.1c-1.1,0-2,0.9-2,2s0.9,2,2,2h6.7v0
	C9.7,1.1,10.4,0.3,10.4-0.7z"/>
<path id="path14" fill="#02809E" d="M37.1,6.3c0-1-0.7-1.8-1.7-1.9v0h-6.7c-1.1,0-2,0.9-2,2s0.9,2,2,2h6.7v0
	C36.4,8.1,37.1,7.3,37.1,6.3z"/>
<path id="path16" fill="#02809E" d="M53.4,16.6c0-2.9-2.2-5.4-5-5.8v-0.1H31.4c-3.3,0-5.9,2.6-5.9,5.9c0,3.3,2.6,5.9,5.9,5.9h17.1
	v-0.1C51.3,21.9,53.4,19.5,53.4,16.6z"/>
<path id="path18" fill="#02809E" d="M51.3,6.3c0-1-0.7-1.8-1.7-1.9v0H43c-1.1,0-2,0.9-2,2s0.9,2,2,2h6.7v0
	C50.6,8.1,51.3,7.3,51.3,6.3z"/>
<path id="path20" fill="#02809E" d="M68.3,6.3c0-1-0.7-1.8-1.7-1.9v0H60c-1.1,0-2,0.9-2,2s0.9,2,2,2h6.7v0
	C67.6,8.1,68.3,7.3,68.3,6.3z"/>
<path id="path22" fill="#02809E" d="M68.3,13.8c0-1-0.7-1.8-1.7-1.9v0H60c-1.1,0-2,0.9-2,2s0.9,2,2,2h6.7v0
	C67.6,15.6,68.3,14.8,68.3,13.8z"/>
<path id="path24" fill="#02809E" d="M68.3,21.4c0-1-0.7-1.8-1.7-1.9v0H60c-1.1,0-2,0.9-2,2c0,1.1,0.9,2,2,2h6.7v0
	C67.6,23.1,68.3,22.3,68.3,21.4z"/>
<path id="path26" fill="#02809E" d="M82.4,9.6c0-1-0.7-1.8-1.7-1.9v0h-6.7c-1.1,0-2,0.9-2,2s0.9,2,2,2h6.7v0
	C81.7,11.4,82.4,10.6,82.4,9.6z"/>
<path id="path28" fill="#02809E" d="M82.4,21.8c0-1-0.7-1.8-1.7-1.9v0h-6.7c-1.1,0-2,0.9-2,2s0.9,2,2,2h6.7v0
	C81.7,23.6,82.4,22.8,82.4,21.8z"/>
<path id="path30" fill="#02809E" d="M86.1,9.6c0-1,0.7-1.8,1.7-1.9v0h6.7c1.1,0,2,0.9,2,2s-0.9,2-2,2h-6.7v0
	C86.8,11.4,86.1,10.6,86.1,9.6z"/>
<path id="path32" fill="#02809E" d="M86.1,21.8c0-1,0.7-1.8,1.7-1.9v0h6.7c1.1,0,2,0.9,2,2s-0.9,2-2,2h-6.7v0
	C86.8,23.6,86.1,22.8,86.1,21.8z"/>
<path id="path34" fill="#02809E" d="M10.4,22.8c0-1-0.7-1.8-1.7-1.9v0H2.1c-1.1,0-2,0.9-2,2s0.9,2,2,2h6.7v0
	C9.7,24.6,10.4,23.8,10.4,22.8z"/>
<path id="path36" fill="#02809E" d="M10.4-30.2c0-1-0.7-1.8-1.7-1.9v0H2.1c-1.1,0-2,0.9-2,2s0.9,2,2,2h6.7v0
	C9.7-28.4,10.4-29.2,10.4-30.2z"/>
<path id="path38" fill="#02809E" d="M-22.1-34.5c0-1-0.7-1.8-1.7-1.9v0h-6.7c-1.1,0-2,0.9-2,2c0,1.1,0.9,2,2,2h6.7v0
	C-22.8-32.7-22.1-33.5-22.1-34.5z"/>
<path id="path40" fill="#02809E" d="M-9.7-34.5c0-1-0.7-1.8-1.7-1.9v0H-18c-1.1,0-2,0.9-2,2c0,1.1,0.9,2,2,2h6.7v0
	C-10.4-32.7-9.7-33.5-9.7-34.5z"/>
<path id="path42" fill="#02809E" d="M10.4-18.4c0-1-0.7-1.8-1.7-1.9v0H2.1c-1.1,0-2,0.9-2,2c0,1.1,0.9,2,2,2h6.7v0
	C9.7-16.6,10.4-17.4,10.4-18.4z"/>
<path id="path44" fill="#02809E" d="M-12.9,42.1c0-1-0.7-1.8-1.7-1.9v0h-6.7c-1.1,0-2,0.9-2,2c0,1.1,0.9,2,2,2h6.7v0
	C-13.6,43.9-12.9,43.1-12.9,42.1z"/>
<path id="path46" fill="#02809E" d="M-12.9,34c0-1-0.7-1.8-1.7-1.9v0h-6.7c-1.1,0-2,0.9-2,2s0.9,2,2,2h6.7v0
	C-13.6,35.8-12.9,35-12.9,34z"/>
<path id="path48" fill="#02809E" d="M-29.6,11.9c1,0,1.8-0.7,1.9-1.7h0V5.5c0-1.1-0.9-2-2-2s-2,0.9-2,2v4.7h0
	C-31.4,11.2-30.6,11.9-29.6,11.9z"/>
<path id="path50" fill="#02809E" d="M-22.4,11.9c1,0,1.8-0.7,1.9-1.7h0V5.5c0-1.1-0.9-2-2-2c-1.1,0-2,0.9-2,2v4.7h0
	C-24.2,11.2-23.4,11.9-22.4,11.9z"/>
<path id="path52" fill="#02809E" d="M-15.3,11.9c1,0,1.8-0.7,1.9-1.7h0V5.5c0-1.1-0.9-2-2-2c-1.1,0-2,0.9-2,2v4.7h0
	C-17,11.2-16.2,11.9-15.3,11.9z"/>
<path id="path54" fill="#02809E" d="M-8.1,11.9c1,0,1.8-0.7,1.9-1.7h0V5.5c0-1.1-0.9-2-2-2c-1.1,0-2,0.9-2,2v4.7h0
	C-9.8,11.2-9,11.9-8.1,11.9z"/>
<path id="path56" fill="#02809E" d="M75.3-9.9c0,1,0.7,1.8,1.7,1.9v0h6.7c1.1,0,2-0.9,2-2s-0.9-2-2-2H77v0
	C76-11.7,75.3-10.9,75.3-9.9z"/>
<path id="path58" fill="#02809E" d="M-32.2,35.9c0-1-0.7-1.8-1.7-1.9v0h-6.7c-1.1,0-2,0.9-2,2c0,1.1,0.9,2,2,2h6.7v0
	C-32.9,37.6-32.2,36.8-32.2,35.9z"/>
<path id="path60" fill="#02809E" d="M-32.2,42.2c0-1-0.7-1.8-1.7-1.9v0h-6.7c-1.1,0-2,0.9-2,2c0,1.1,0.9,2,2,2h6.7v0
	C-32.9,44-32.2,43.2-32.2,42.2z"/>
<path id="path62" fill="#02809E" d="M-32.2,48.6c0-1-0.7-1.8-1.7-1.9v0h-6.7c-1.1,0-2,0.9-2,2c0,1.1,0.9,2,2,2h6.7v0
	C-32.9,50.4-32.2,49.6-32.2,48.6z"/>
<rect id="rect64" x="-58.1" y="32.5" fill="#02809E" width="19.7" height="18.8"/>
<rect id="rect66" x="-61.6" y="34.8" fill="#02809E" width="4.9" height="14.2"/>
<circle id="circle68" fill="#02809E" cx="-14.4" cy="-49.9" r="1.7"/>
<path id="path70" fill="#02809E" d="M-14.4-54.2c-2.4,0-4.3,1.9-4.3,4.3c0,2.4,1.9,4.3,4.3,4.3c2.4,0,4.3-1.9,4.3-4.3
	C-10.1-52.3-12-54.2-14.4-54.2z M-14.4-46c-2.1,0-3.9-1.7-3.9-3.9s1.7-3.9,3.9-3.9s3.9,1.7,3.9,3.9C-10.5-47.8-12.3-46-14.4-46z"/>
<circle id="circle72" fill="#02809E" cx="-59" cy="81.7" r="1.7"/>
<path id="path74" fill="#02809E" d="M-59,77.4c-2.4,0-4.3,1.9-4.3,4.3c0,2.4,1.9,4.3,4.3,4.3c2.4,0,4.3-1.9,4.3-4.3
	C-54.7,79.3-56.6,77.4-59,77.4z M-59,85.6c-2.1,0-3.9-1.7-3.9-3.9c0-2.1,1.7-3.9,3.9-3.9c2.1,0,3.9,1.7,3.9,3.9
	C-55.1,83.8-56.9,85.6-59,85.6z"/>
<circle id="circle76" fill="#02809E" cx="104.4" cy="-25.1" r="1.7"/>
<path id="path78" fill="#02809E" d="M104.4-29.5c-2.4,0-4.3,1.9-4.3,4.3s1.9,4.3,4.3,4.3c2.4,0,4.3-1.9,4.3-4.3
	C108.8-27.5,106.8-29.5,104.4-29.5z M104.4-21.3c-2.1,0-3.9-1.7-3.9-3.9s1.7-3.9,3.9-3.9c2.1,0,3.9,1.7,3.9,3.9
	C108.3-23,106.6-21.3,104.4-21.3z"/>
<circle id="circle80" fill="#02809E" cx="-57.7" cy="-31.7" r="4.2"/>
<circle id="circle82" fill="#02809E" cx="-57.7" cy="2.1" r="4.2"/>
<rect id="rect84" x="-33.9" y="-23.3" fill="#02809E" width="27.8" height="15.7"/>
<rect id="rect86" x="-27.5" y="51.2" fill="#02809E" width="17.1" height="7.8"/>
<rect id="rect88" x="-26.6" y="19.4" fill="#02809E" width="15.7" height="9.1"/>
<rect id="rect90" x="11.3" y="34.2" fill="#02809E" width="94.2" height="20.9"/>
<circle id="circle92" fill="#02809E" cx="-36" cy="66.7" r="5.5"/>
<path id="path94" fill="#02809E" d="M-43.2,74.5c3.1,0,5.5,2.5,5.5,5.5c0,3-2.5,5.5-5.5,5.5c-3,0-5.5-2.5-5.5-5.5
	C-48.7,77-46.3,74.5-43.2,74.5z"/>
<path id="path96" fill="#02809E" d="M-5.9,78c0.4-1.1,0.7-2.3,0.7-3.5c0-5.3-4.3-9.7-9.7-9.7c-5.3,0-9.7,4.3-9.7,9.7
	c0,2.5,1,4.8,2.5,6.5L-5.9,78z"/>
<path id="path98" fill="#02809E" d="M16.7,78c0.4-1.1,0.7-2.3,0.7-3.5c0-5.3-4.3-9.7-9.7-9.7c-5.3,0-9.7,4.3-9.7,9.7
	c0,2.5,1,4.8,2.5,6.5L16.7,78z"/>
<path id="path100" fill="#8D8C8C" d="M10.4-12.5c0-1-0.7-1.8-1.7-1.9v0H2.1c-1.1,0-2,0.9-2,2c0,1.1,0.9,2,2,2h6.7v0
	C9.7-10.7,10.4-11.5,10.4-12.5z"/>
<rect id="rect102" x="3.6" y="-14.1" fill="#FBBE0E" width="3.5" height="3.1"/>
<path id="path104" fill="#8D8C8C" d="M10.4-24.3c0-1-0.7-1.8-1.7-1.9v0H2.1c-1.1,0-2,0.9-2,2s0.9,2,2,2h6.7v0
	C9.7-22.5,10.4-23.3,10.4-24.3z"/>
<rect id="rect106" x="3.6" y="-25.9" fill="#FBBE0E" width="3.5" height="3.1"/>
<path id="path108" fill="#8D8C8C" d="M98.1-9.9c0-1-0.7-1.8-1.7-1.9v0h-6.7c-1.1,0-2,0.9-2,2c0,1.1,0.9,2,2,2h6.7v0
	C97.4-8.1,98.1-8.9,98.1-9.9z"/>
<rect id="rect110" x="91.3" y="-11.5" fill="#FBBE0E" width="3.6" height="3.1"/>
<path id="path112" fill="#8D8C8C" d="M10.4-6.6c0-1-0.7-1.8-1.7-1.9v0H2.1c-1.1,0-2,0.9-2,2c0,1.1,0.9,2,2,2h6.7v0
	C9.7-4.8,10.4-5.6,10.4-6.6z"/>
<rect id="rect114" x="3.6" y="-8.2" fill="#FBBE0E" width="3.5" height="3.1"/>
<rect id="rect116" x="76.5" y="7.4" fill="#8D8C8C" width="16.2" height="16.5"/>
<path id="path118" fill="#404040" d="M92.3,9.7c0,0.8-0.7,1.5-1.5,1.5c-0.8,0-1.5-0.7-1.5-1.5c0-0.8,0.7-1.5,1.5-1.5
	C91.6,8.2,92.3,8.9,92.3,9.7z"/>
<path id="path120" fill="#404040" d="M79.9,9.7c0,0.8-0.7,1.5-1.5,1.5c-0.8,0-1.5-0.7-1.5-1.5c0-0.8,0.7-1.5,1.5-1.5
	C79.2,8.2,79.9,8.9,79.9,9.7z"/>
<circle id="circle122" fill="#404040" cx="78.4" cy="22.1" r="1.5"/>
<circle id="circle124" fill="#404040" cx="90.8" cy="22.1" r="1.5"/>
<circle id="circle126" fill="#404040" cx="84.3" cy="15.7" r="4.8"/>
<polygon id="polygon128" fill="#404040" points="115.5,2.3 111.7,2.3 108.4,2.3 104.6,2.3 103.1,3.8 103.1,7.6 104.6,9.1 108.4,9.1 
	111.7,9.1 115.5,9.1 116.9,7.6 116.9,3.8 "/>
<polygon id="polygon130" fill="#404040" points="115.5,9.3 111.7,9.3 108.4,9.3 104.6,9.3 103.1,10.8 103.1,14.6 104.6,16.1 
	108.4,16.1 111.7,16.1 115.5,16.1 116.9,14.6 116.9,10.8 "/>
<polygon id="polygon132" fill="#404040" points="115.5,16.3 111.7,16.3 108.4,16.3 104.6,16.3 103.1,17.8 103.1,21.6 104.6,23 
	108.4,23 111.7,23 115.5,23 116.9,21.6 116.9,17.8 "/>
<polygon id="polygon134" fill="#404040" points="115.5,2.3 111.7,2.3 108.4,2.3 104.6,2.3 103.1,3.8 103.1,7.6 104.6,9.1 108.4,9.1 
	111.7,9.1 115.5,9.1 116.9,7.6 116.9,3.8 "/>
<polygon id="polygon136" fill="#404040" points="115.5,9.3 111.7,9.3 108.4,9.3 104.6,9.3 103.1,10.8 103.1,14.6 104.6,16.1 
	108.4,16.1 111.7,16.1 115.5,16.1 116.9,14.6 116.9,10.8 "/>
<polygon id="polygon138" fill="#404040" points="115.5,16.3 111.7,16.3 108.4,16.3 104.6,16.3 103.1,17.8 103.1,21.6 104.6,23 
	108.4,23 111.7,23 115.5,23 116.9,21.6 116.9,17.8 "/>
<rect id="rect140" x="105.5" y="18.4" fill="#8D8C8C" width="2.2" height="2.2"/>
<rect id="rect142" x="112.5" y="18.4" fill="#8D8C8C" width="2.2" height="2.2"/>
<rect id="rect144" x="105.5" y="11.4" fill="#8D8C8C" width="2.2" height="2.2"/>
<rect id="rect146" x="112.5" y="11.4" fill="#8D8C8C" width="2.2" height="2.2"/>
<rect id="rect148" x="105.5" y="4.4" fill="#8D8C8C" width="2.2" height="2.2"/>
<rect id="rect150" x="112.5" y="4.4" fill="#8D8455" width="2.2" height="2.2"/>
<polygon id="polygon152" fill="#404040" points="-52.6,9.2 -56.4,9.2 -52.6,9.2 -56.4,9.2 -57.9,10.6 -57.9,14.4 -56.4,15.9 
	-52.6,15.9 -56.4,15.9 -52.6,15.9 -51.1,14.4 -51.1,10.6 "/>
<rect id="rect154" x="113" y="5" fill="#8C8663" width="1.2" height="1.1"/>
<polygon id="polygon156" fill="#B8AF82" points="112.5,4.4 113,5 114.2,5 114.7,4.4 "/>
<polygon id="polygon158" fill="#80795B" points="114.2,6.1 114.2,5 114.7,4.4 114.7,6.7 "/>
<polygon id="polygon160" fill="#5E5B43" points="113,6.1 114.2,6.1 114.7,6.7 112.5,6.7 "/>
<polygon id="polygon162" fill="#9A916C" points="112.5,4.4 113,5 113,6.1 112.5,6.7 "/>
<rect id="rect164" x="106" y="5" fill="#8C8663" width="1.1" height="1.1"/>
<polygon id="polygon166" fill="#B8AF82" points="105.5,4.4 106,5 107.2,5 107.7,4.4 "/>
<polygon id="polygon168" fill="#80795B" points="107.2,6.1 107.2,5 107.7,4.4 107.7,6.7 "/>
<polygon id="polygon170" fill="#5E5B43" points="106,6.1 107.2,6.1 107.7,6.7 105.5,6.7 "/>
<polygon id="polygon172" fill="#9A916C" points="105.5,4.4 106,5 106,6.1 105.5,6.7 "/>
<rect id="rect174" x="113" y="12" fill="#8C8663" width="1.2" height="1.1"/>
<polygon id="polygon176" fill="#B8AF82" points="112.5,11.4 113,12 114.2,12 114.7,11.4 "/>
<polygon id="polygon178" fill="#80795B" points="114.2,13.1 114.2,12 114.7,11.4 114.7,13.7 "/>
<polygon id="polygon180" fill="#5E5B43" points="113,13.1 114.2,13.1 114.7,13.7 112.5,13.7 "/>
<polygon id="polygon182" fill="#9A916C" points="112.5,11.4 113,12 113,13.1 112.5,13.7 "/>
<rect id="rect184" x="106" y="12" fill="#8C8663" width="1.1" height="1.1"/>
<polygon id="polygon186" fill="#B8AF82" points="105.5,11.4 106,12 107.2,12 107.7,11.4 "/>
<polygon id="polygon188" fill="#80795B" points="107.2,13.1 107.2,12 107.7,11.4 107.7,13.7 "/>
<polygon id="polygon190" fill="#5E5B43" points="106,13.1 107.2,13.1 107.7,13.7 105.5,13.7 "/>
<polygon id="polygon192" fill="#9A916C" points="105.5,11.4 106,12 106,13.1 105.5,13.7 "/>
<rect id="rect194" x="113" y="19" fill="#8C8663" width="1.2" height="1.1"/>
<polygon id="polygon196" fill="#B8AF82" points="112.5,18.4 113,19 114.2,19 114.7,18.4 "/>
<polygon id="polygon198" fill="#80795B" points="114.2,20.1 114.2,19 114.7,18.4 114.7,20.7 "/>
<polygon id="polygon200" fill="#5E5B43" points="113,20.1 114.2,20.1 114.7,20.7 112.5,20.7 "/>
<polygon id="polygon202" fill="#9A916C" points="112.5,18.4 113,19 113,20.1 112.5,20.7 "/>
<rect id="rect204" x="106" y="19" fill="#8C8663" width="1.1" height="1.1"/>
<polygon id="polygon206" fill="#B8AF82" points="105.5,18.4 106,19 107.2,19 107.7,18.4 "/>
<polygon id="polygon208" fill="#80795B" points="107.2,20.1 107.2,19 107.7,18.4 107.7,20.7 "/>
<polygon id="polygon210" fill="#5E5B43" points="106,20.1 107.2,20.1 107.7,20.7 105.5,20.7 "/>
<polygon id="polygon212" fill="#9A916C" points="105.5,18.4 106,19 106,20.1 105.5,20.7 "/>
<rect id="rect214" x="-55" y="12" fill="#8C8663" width="1.1" height="1.1"/>
<polygon id="polygon216" fill="#B8AF82" points="-55.6,11.4 -55,12 -53.9,12 -53.3,11.4 "/>
<polygon id="polygon218" fill="#80795B" points="-53.9,13.1 -53.9,12 -53.3,11.4 -53.3,13.7 "/>
<polygon id="polygon220" fill="#5E5B43" points="-55,13.1 -53.9,13.1 -53.3,13.7 -55.6,13.7 "/>
<polygon id="polygon222" fill="#9A916C" points="-55.6,11.4 -55,12 -55,13.1 -55.6,13.7 "/>
<polygon id="polygon224" fill="#404040" points="-52.6,16.2 -56.4,16.2 -52.6,16.2 -56.4,16.2 -57.9,17.6 -57.9,21.5 -56.4,22.9 
	-52.6,22.9 -56.4,22.9 -52.6,22.9 -51.1,21.5 -51.1,17.6 "/>
<rect id="rect226" x="-55" y="19" fill="#8C8663" width="1.1" height="1.1"/>
<polygon id="polygon228" fill="#B8AF82" points="-55.6,18.4 -55,19 -53.9,19 -53.3,18.4 "/>
<polygon id="polygon230" fill="#80795B" points="-53.9,20.1 -53.9,19 -53.3,18.4 -53.3,20.7 "/>
<polygon id="polygon232" fill="#5E5B43" points="-55,20.1 -53.9,20.1 -53.3,20.7 -55.6,20.7 "/>
<polygon id="polygon234" fill="#9A916C" points="-55.6,18.4 -55,19 -55,20.1 -55.6,20.7 "/>
<polygon id="polygon236" fill="#404040" points="-52.6,23.2 -56.4,23.2 -52.6,23.2 -56.4,23.2 -57.9,24.6 -57.9,28.4 -56.4,29.9 
	-52.6,29.9 -56.4,29.9 -52.6,29.9 -51.1,28.4 -51.1,24.6 "/>
<rect id="rect238" x="-55" y="26" fill="#8C8663" width="1.1" height="1.2"/>
<polygon id="polygon240" fill="#B8AF82" points="-55.6,25.4 -55,26 -53.9,26 -53.3,25.4 "/>
<polygon id="polygon242" fill="#80795B" points="-53.9,27.1 -53.9,26 -53.3,25.4 -53.3,27.6 "/>
<polygon id="polygon244" fill="#5E5B43" points="-55,27.1 -53.9,27.1 -53.3,27.6 -55.6,27.6 "/>
<polygon id="polygon246" fill="#9A916C" points="-55.6,25.4 -55,26 -55,27.1 -55.6,27.6 "/>
<path id="path248" d="M-55.6,11.4v2.2h2.2v-2.2H-55.6z M-53.6,13.4h-1.7v-1.7h1.7L-53.6,13.4L-53.6,13.4z"/>
<path id="path250" d="M-55.6,18.4v2.2h2.2v-2.2H-55.6z M-53.6,20.4h-1.7v-1.7h1.7L-53.6,20.4L-53.6,20.4z"/>
<path id="path252" d="M-57.9,9.2v13.8h6.8V9.2C-51.1,9.2-57.9,9.2-57.9,9.2z M-53.3,20.7h-2.2v-2.2h2.2L-53.3,20.7L-53.3,20.7z
	 M-53.3,13.7h-2.2v-2.2h2.2L-53.3,13.7L-53.3,13.7z"/>
<rect id="rect256" x="-55.3" y="13.7" fill="#4D4726" width="1.7" height="0.5"/>
<rect id="rect258" x="-55.3" y="17.9" fill="#4D4726" width="1.7" height="0.5"/>
<polygon id="polygon260" fill="#262626" points="-57.9,9.2 -57.9,14.2 -56.3,14.2 -56.3,11 -52.7,11 -52.7,14.2 -51.1,14.2 
	-51.1,9.2 "/>
<polygon id="polygon262" fill="#262626" points="-51.1,22.9 -51.1,17.9 -52.7,17.9 -52.7,21 -56.3,21 -56.3,17.9 -57.8,17.9 
	-57.8,22.9 "/>
<text id="text280" transform="matrix(1 0 0 1 23.283 -0.9522)" fill="#CCCCCC" font-family="'ArialMT'" font-size="8.4691">Diecimila</text>
<text id="text282" transform="matrix(1 0 0 1 25.7378 -10.9408)" fill="#CCCCCC" font-family="'ArialMT'" font-size="8.4691">Arduino</text>
<rect id="rect390" x="-87.2" y="-31.1" fill="#676666" width="36.9" height="33"/>
<rect id="rect392" x="-50.3" y="-31.1" fill="#676666" width="7.8" height="33"/>
<rect id="rect394" x="-72.5" y="56.5" width="36.2" height="23.2"/>
<rect id="rect396" x="-72.8" y="55.2" width="7.5" height="25.5"/>
<rect id="rect398" x="-8.9" y="-54" fill="#404040" width="7" height="7"/>
<rect id="rect400" x="-6.8" y="-51.8" width="2.7" height="2.7"/>
<polygon id="polygon402" fill="#2A2A29" points="-7.8,-52.8 -6.8,-51.8 -4.1,-51.8 -3.1,-52.8 "/>
<polygon id="polygon404" fill="#474747" points="-3.1,-52.8 -4.1,-51.8 -4.1,-49.1 -3.1,-48.1 "/>
<polygon id="polygon406" fill="#595959" points="-3.1,-48.1 -4.1,-49.1 -6.8,-49.1 -7.8,-48.1 "/>
<polygon id="polygon408" fill="#373737" points="-7.8,-48.1 -6.8,-49.1 -6.8,-51.8 -7.8,-52.8 "/>
<rect id="rect410" x="-2" y="-54" fill="#404040" width="7" height="7"/>
<rect id="rect412" x="0.2" y="-51.8" width="2.7" height="2.7"/>
<polygon id="polygon414" fill="#2A2A29" points="-0.8,-52.8 0.2,-51.8 2.9,-51.8 3.9,-52.8 "/>
<polygon id="polygon416" fill="#474747" points="3.9,-52.8 2.9,-51.8 2.9,-49.1 3.9,-48.1 "/>
<polygon id="polygon418" fill="#595959" points="3.9,-48.1 2.9,-49.1 0.2,-49.1 -0.8,-48.1 "/>
<polygon id="polygon420" fill="#373737" points="-0.8,-48.1 0.2,-49.1 0.2,-51.8 -0.8,-52.8 "/>
<rect id="rect422" x="5" y="-54" fill="#404040" width="7" height="7"/>
<rect id="rect424" x="7.2" y="-51.8" width="2.7" height="2.7"/>
<polygon id="polygon426" fill="#2A2A29" points="6.2,-52.8 7.2,-51.8 9.9,-51.8 10.9,-52.8 "/>
<polygon id="polygon428" fill="#474747" points="10.9,-52.8 9.9,-51.8 9.9,-49.1 10.9,-48.1 "/>
<polygon id="polygon430" fill="#595959" points="10.9,-48.1 9.9,-49.1 7.2,-49.1 6.2,-48.1 "/>
<polygon id="polygon432" fill="#373737" points="6.2,-48.1 7.2,-49.1 7.2,-51.8 6.2,-52.8 "/>
<rect id="rect434" x="12" y="-54" fill="#404040" width="7" height="7"/>
<rect id="rect436" x="14.1" y="-51.8" width="2.7" height="2.7"/>
<polygon id="polygon438" fill="#2A2A29" points="13.1,-52.8 14.1,-51.8 16.8,-51.8 17.8,-52.8 "/>
<polygon id="polygon440" fill="#474747" points="17.8,-52.8 16.8,-51.8 16.8,-49.1 17.8,-48.1 "/>
<polygon id="polygon442" fill="#595959" points="17.8,-48.1 16.8,-49.1 14.1,-49.1 13.1,-48.1 "/>
<polygon id="polygon444" fill="#373737" points="13.1,-48.1 14.1,-49.1 14.1,-51.8 13.1,-52.8 "/>
<rect id="rect446" x="33.1" y="79.1" fill="#404040" width="7" height="7"/>
<rect id="rect448" x="35.2" y="81.2" width="2.7" height="2.7"/>
<polygon id="polygon450" fill="#2A2A29" points="34.2,80.2 35.2,81.2 37.9,81.2 38.9,80.2 "/>
<polygon id="polygon452" fill="#474747" points="38.9,80.2 37.9,81.2 37.9,83.9 38.9,84.9 "/>
<polygon id="polygon454" fill="#595959" points="38.9,84.9 37.9,83.9 35.2,83.9 34.2,84.9 "/>
<polygon id="polygon456" fill="#373737" points="34.2,84.9 35.2,83.9 35.2,81.2 34.2,80.2 "/>
<rect id="rect458" x="26.1" y="79.1" fill="#404040" width="7" height="7"/>
<rect id="rect460" x="28.2" y="81.2" width="2.7" height="2.7"/>
<polygon id="polygon462" fill="#2A2A29" points="27.2,80.2 28.2,81.2 30.9,81.2 31.9,80.2 "/>
<polygon id="polygon464" fill="#474747" points="31.9,80.2 30.9,81.2 30.9,83.9 31.9,84.9 "/>
<polygon id="polygon466" fill="#595959" points="31.9,84.9 30.9,83.9 28.2,83.9 27.2,84.9 "/>
<polygon id="polygon468" fill="#373737" points="27.2,84.9 28.2,83.9 28.2,81.2 27.2,80.2 "/>
<rect id="rect470" x="19.1" y="79.1" fill="#404040" width="7" height="7"/>
<rect id="rect472" x="21.2" y="81.2" width="2.7" height="2.7"/>
<polygon id="polygon474" fill="#2A2A29" points="20.2,80.2 21.2,81.2 23.9,81.2 24.9,80.2 "/>
<polygon id="polygon476" fill="#474747" points="24.9,80.2 23.9,81.2 23.9,83.9 24.9,84.9 "/>
<polygon id="polygon478" fill="#595959" points="24.9,84.9 23.9,83.9 21.2,83.9 20.2,84.9 "/>
<polygon id="polygon480" fill="#373737" points="20.2,84.9 21.2,83.9 21.2,81.2 20.2,80.2 "/>
<rect id="rect482" x="40" y="79.1" fill="#404040" width="7" height="7"/>
<rect id="rect484" x="42.2" y="81.2" width="2.7" height="2.7"/>
<polygon id="polygon486" fill="#2A2A29" points="41.2,80.2 42.2,81.2 44.9,81.2 45.9,80.2 "/>
<polygon id="polygon488" fill="#474747" points="45.9,80.2 44.9,81.2 44.9,83.9 45.9,84.9 "/>
<polygon id="polygon490" fill="#595959" points="45.9,84.9 44.9,83.9 42.2,83.9 41.2,84.9 "/>
<polygon id="polygon492" fill="#373737" points="41.2,84.9 42.2,83.9 42.2,81.2 41.2,80.2 "/>
<rect id="rect494" x="47" y="79.1" fill="#404040" width="7" height="7"/>
<rect id="rect496" x="49.2" y="81.2" width="2.7" height="2.7"/>
<polygon id="polygon498" fill="#2A2A29" points="48.2,80.2 49.2,81.2 51.9,81.2 52.9,80.2 "/>
<polygon id="polygon500" fill="#474747" points="52.9,80.2 51.9,81.2 51.9,83.9 52.9,84.9 "/>
<polygon id="polygon502" fill="#595959" points="52.9,84.9 51.9,83.9 49.2,83.9 48.2,84.9 "/>
<polygon id="polygon504" fill="#373737" points="48.2,84.9 49.2,83.9 49.2,81.2 48.2,80.2 "/>
<rect id="rect506" x="54" y="79.1" fill="#404040" width="7" height="7"/>
<rect id="rect508" x="56.2" y="81.2" width="2.7" height="2.7"/>
<polygon id="polygon510" fill="#2A2A29" points="55.2,80.2 56.2,81.2 58.9,81.2 59.8,80.2 "/>
<polygon id="polygon512" fill="#474747" points="59.8,80.2 58.9,81.2 58.9,83.9 59.8,84.9 "/>
<polygon id="polygon514" fill="#595959" points="59.8,84.9 58.9,83.9 56.2,83.9 55.2,84.9 "/>
<polygon id="polygon516" fill="#373737" points="55.2,84.9 56.2,83.9 56.2,81.2 55.2,80.2 "/>
<rect id="rect518" x="68.1" y="79.1" fill="#404040" width="7" height="7"/>
<rect id="rect520" x="70.2" y="81.2" width="2.7" height="2.7"/>
<polygon id="polygon522" fill="#2A2A29" points="69.2,80.2 70.2,81.2 72.9,81.2 73.9,80.2 "/>
<polygon id="polygon524" fill="#474747" points="73.9,80.2 72.9,81.2 72.9,83.9 73.9,84.9 "/>
<polygon id="polygon526" fill="#595959" points="73.9,84.9 72.9,83.9 70.2,83.9 69.2,84.9 "/>
<polygon id="polygon528" fill="#373737" points="69.2,84.9 70.2,83.9 70.2,81.2 69.2,80.2 "/>
<rect id="rect530" x="75.1" y="79.1" fill="#404040" width="7" height="7"/>
<rect id="rect532" x="77.2" y="81.2" width="2.7" height="2.7"/>
<polygon id="polygon534" fill="#2A2A29" points="76.2,80.2 77.2,81.2 79.9,81.2 80.9,80.2 "/>
<polygon id="polygon536" fill="#474747" points="80.9,80.2 79.9,81.2 79.9,83.9 80.9,84.9 "/>
<polygon id="polygon538" fill="#595959" points="80.9,84.9 79.9,83.9 77.2,83.9 76.2,84.9 "/>
<polygon id="polygon540" fill="#373737" points="76.2,84.9 77.2,83.9 77.2,81.2 76.2,80.2 "/>
<rect id="rect542" x="82" y="79.1" fill="#404040" width="7" height="7"/>
<rect id="rect544" x="84.2" y="81.2" width="2.7" height="2.7"/>
<polygon id="polygon546" fill="#2A2A29" points="83.2,80.2 84.2,81.2 86.9,81.2 87.9,80.2 "/>
<polygon id="polygon548" fill="#474747" points="87.9,80.2 86.9,81.2 86.9,83.9 87.9,84.9 "/>
<polygon id="polygon550" fill="#595959" points="87.9,84.9 86.9,83.9 84.2,83.9 83.2,84.9 "/>
<polygon id="polygon552" fill="#373737" points="83.2,84.9 84.2,83.9 84.2,81.2 83.2,80.2 "/>
<rect id="rect554" x="89" y="79.1" fill="#404040" width="7" height="7"/>
<rect id="rect556" x="91.2" y="81.2" width="2.7" height="2.7"/>
<polygon id="polygon558" fill="#2A2A29" points="90.2,80.2 91.2,81.2 93.8,81.2 94.9,80.2 "/>
<polygon id="polygon560" fill="#474747" points="94.9,80.2 93.8,81.2 93.8,83.9 94.9,84.9 "/>
<polygon id="polygon562" fill="#595959" points="94.9,84.9 93.8,83.9 91.2,83.9 90.2,84.9 "/>
<polygon id="polygon564" fill="#373737" points="90.2,84.9 91.2,83.9 91.2,81.2 90.2,80.2 "/>
<rect id="rect566" x="96" y="79.1" fill="#404040" width="7" height="7"/>
<rect id="rect568" x="98.1" y="81.2" width="2.7" height="2.7"/>
<polygon id="polygon570" fill="#2A2A29" points="97.2,80.2 98.1,81.2 100.8,81.2 101.8,80.2 "/>
<polygon id="polygon572" fill="#474747" points="101.8,80.2 100.8,81.2 100.8,83.9 101.8,84.9 "/>
<polygon id="polygon574" fill="#595959" points="101.8,84.9 100.8,83.9 98.1,83.9 97.2,84.9 "/>
<polygon id="polygon576" fill="#373737" points="97.2,84.9 98.1,83.9 98.1,81.2 97.2,80.2 "/>
<rect id="rect578" x="103" y="79.1" fill="#404040" width="7" height="7"/>
<rect id="rect580" x="105.1" y="81.2" width="2.7" height="2.7"/>
<polygon id="polygon582" fill="#2A2A29" points="104.1,80.2 105.1,81.2 107.8,81.2 108.8,80.2 "/>
<polygon id="polygon584" fill="#474747" points="108.8,80.2 107.8,81.2 107.8,83.9 108.8,84.9 "/>
<polygon id="polygon586" fill="#595959" points="108.8,84.9 107.8,83.9 105.1,83.9 104.1,84.9 "/>
<polygon id="polygon588" fill="#373737" points="104.1,84.9 105.1,83.9 105.1,81.2 104.1,80.2 "/>
<rect id="rect590" x="19" y="-54" fill="#404040" width="7" height="7"/>
<rect id="rect592" x="21.1" y="-51.8" width="2.7" height="2.7"/>
<polygon id="polygon594" fill="#2A2A29" points="20.1,-52.8 21.1,-51.8 23.8,-51.8 24.8,-52.8 "/>
<polygon id="polygon596" fill="#474747" points="24.8,-52.8 23.8,-51.8 23.8,-49.1 24.8,-48.1 "/>
<polygon id="polygon598" fill="#595959" points="24.8,-48.1 23.8,-49.1 21.1,-49.1 20.1,-48.1 "/>
<polygon id="polygon600" fill="#373737" points="20.1,-48.1 21.1,-49.1 21.1,-51.8 20.1,-52.8 "/>
<rect id="rect602" x="26" y="-54" fill="#404040" width="7" height="7"/>
<rect id="rect604" x="28.1" y="-51.8" width="2.7" height="2.7"/>
<polygon id="polygon606" fill="#2A2A29" points="27.1,-52.8 28.1,-51.8 30.8,-51.8 31.8,-52.8 "/>
<polygon id="polygon608" fill="#474747" points="31.8,-52.8 30.8,-51.8 30.8,-49.1 31.8,-48.1 "/>
<polygon id="polygon610" fill="#595959" points="31.8,-48.1 30.8,-49.1 28.1,-49.1 27.1,-48.1 "/>
<polygon id="polygon612" fill="#373737" points="27.1,-48.1 28.1,-49.1 28.1,-51.8 27.1,-52.8 "/>
<rect id="rect614" x="32.9" y="-54" fill="#404040" width="7" height="7"/>
<rect id="rect616" x="35.1" y="-51.8" width="2.7" height="2.7"/>
<polygon id="polygon618" fill="#2A2A29" points="34.1,-52.8 35.1,-51.8 37.8,-51.8 38.8,-52.8 "/>
<polygon id="polygon620" fill="#474747" points="38.8,-52.8 37.8,-51.8 37.8,-49.1 38.8,-48.1 "/>
<polygon id="polygon622" fill="#595959" points="38.8,-48.1 37.8,-49.1 35.1,-49.1 34.1,-48.1 "/>
<polygon id="polygon624" fill="#373737" points="34.1,-48.1 35.1,-49.1 35.1,-51.8 34.1,-52.8 "/>
<rect id="rect626" x="39.9" y="-54" fill="#404040" width="7" height="7"/>
<rect id="rect628" x="42.1" y="-51.8" width="2.7" height="2.7"/>
<polygon id="polygon630" fill="#2A2A29" points="41.1,-52.8 42.1,-51.8 44.8,-51.8 45.7,-52.8 "/>
<polygon id="polygon632" fill="#474747" points="45.7,-52.8 44.8,-51.8 44.8,-49.1 45.7,-48.1 "/>
<polygon id="polygon634" fill="#595959" points="45.7,-48.1 44.8,-49.1 42.1,-49.1 41.1,-48.1 "/>
<polygon id="polygon636" fill="#373737" points="41.1,-48.1 42.1,-49.1 42.1,-51.8 41.1,-52.8 "/>
<rect id="rect638" x="54.1" y="-54" fill="#404040" width="7" height="7"/>
<rect id="rect640" x="56.2" y="-51.8" width="2.7" height="2.7"/>
<polygon id="polygon642" fill="#2A2A29" points="55.2,-52.8 56.2,-51.8 58.9,-51.8 59.9,-52.8 "/>
<polygon id="polygon644" fill="#474747" points="59.9,-52.8 58.9,-51.8 58.9,-49.1 59.9,-48.1 "/>
<polygon id="polygon646" fill="#595959" points="59.9,-48.1 58.9,-49.1 56.2,-49.1 55.2,-48.1 "/>
<polygon id="polygon648" fill="#373737" points="55.2,-48.1 56.2,-49.1 56.2,-51.8 55.2,-52.8 "/>
<rect id="rect650" x="61.1" y="-54" fill="#404040" width="7" height="7"/>
<rect id="rect652" x="63.2" y="-51.8" width="2.7" height="2.7"/>
<polygon id="polygon654" fill="#2A2A29" points="62.2,-52.8 63.2,-51.8 65.9,-51.8 66.9,-52.8 "/>
<polygon id="polygon656" fill="#474747" points="66.9,-52.8 65.9,-51.8 65.9,-49.1 66.9,-48.1 "/>
<polygon id="polygon658" fill="#595959" points="66.9,-48.1 65.9,-49.1 63.2,-49.1 62.2,-48.1 "/>
<polygon id="polygon660" fill="#373737" points="62.2,-48.1 63.2,-49.1 63.2,-51.8 62.2,-52.8 "/>
<rect id="rect662" x="68" y="-54" fill="#404040" width="7" height="7"/>
<rect id="rect664" x="70.2" y="-51.8" width="2.7" height="2.7"/>
<polygon id="polygon666" fill="#2A2A29" points="69.2,-52.8 70.2,-51.8 72.9,-51.8 73.9,-52.8 "/>
<polygon id="polygon668" fill="#474747" points="73.9,-52.8 72.9,-51.8 72.9,-49.1 73.9,-48.1 "/>
<polygon id="polygon670" fill="#595959" points="73.9,-48.1 72.9,-49.1 70.2,-49.1 69.2,-48.1 "/>
<polygon id="polygon672" fill="#373737" points="69.2,-48.1 70.2,-49.1 70.2,-51.8 69.2,-52.8 "/>
<rect id="rect674" x="75" y="-54" fill="#404040" width="7" height="7"/>
<rect id="rect676" x="77.2" y="-51.8" width="2.7" height="2.7"/>
<polygon id="polygon678" fill="#2A2A29" points="76.2,-52.8 77.1,-51.8 79.9,-51.8 80.9,-52.8 "/>
<polygon id="polygon680" fill="#474747" points="80.9,-52.8 79.9,-51.8 79.9,-49.1 80.9,-48.1 "/>
<polygon id="polygon682" fill="#595959" points="80.9,-48.1 79.9,-49.1 77.1,-49.1 76.2,-48.1 "/>
<polygon id="polygon684" fill="#373737" points="76.2,-48.1 77.1,-49.1 77.1,-51.8 76.2,-52.8 "/>
<rect id="rect686" x="82" y="-54" fill="#404040" width="7" height="7"/>
<rect id="rect688" x="84.1" y="-51.8" width="2.7" height="2.7"/>
<polygon id="polygon690" fill="#2A2A29" points="83.1,-52.8 84.1,-51.8 86.8,-51.8 87.8,-52.8 "/>
<polygon id="polygon692" fill="#474747" points="87.8,-52.8 86.8,-51.8 86.8,-49.1 87.8,-48.1 "/>
<polygon id="polygon694" fill="#595959" points="87.8,-48.1 86.8,-49.1 84.1,-49.1 83.1,-48.1 "/>
<polygon id="polygon696" fill="#373737" points="83.1,-48.1 84.1,-49.1 84.1,-51.8 83.1,-52.8 "/>
<rect id="rect698" x="89" y="-54" fill="#404040" width="7" height="7"/>
<rect id="rect700" x="91.1" y="-51.8" width="2.7" height="2.7"/>
<polygon id="polygon702" fill="#2A2A29" points="90.1,-52.8 91.1,-51.8 93.8,-51.8 94.8,-52.8 "/>
<polygon id="polygon704" fill="#474747" points="94.8,-52.8 93.8,-51.8 93.8,-49.1 94.8,-48.1 "/>
<polygon id="polygon706" fill="#595959" points="94.8,-48.1 93.8,-49.1 91.1,-49.1 90.1,-48.1 "/>
<polygon id="polygon708" fill="#373737" points="90.1,-48.1 91.1,-49.1 91.1,-51.8 90.1,-52.8 "/>
<rect id="rect710" x="96" y="-54" fill="#404040" width="7" height="7"/>
<rect id="rect712" x="98.1" y="-51.8" width="2.7" height="2.7"/>
<polygon id="polygon714" fill="#2A2A29" points="97.1,-52.8 98.1,-51.8 100.8,-51.8 101.8,-52.8 "/>
<polygon id="polygon716" fill="#474747" points="101.8,-52.8 100.8,-51.8 100.8,-49.1 101.8,-48.1 "/>
<polygon id="polygon718" fill="#595959" points="101.8,-48.1 100.8,-49.1 98.1,-49.1 97.1,-48.1 "/>
<polygon id="polygon720" fill="#373737" points="97.1,-48.1 98.1,-49.1 98.1,-51.8 97.1,-52.8 "/>
<rect id="rect722" x="102.9" y="-54" fill="#404040" width="7" height="7"/>
<rect id="rect724" x="105.1" y="-51.8" width="2.7" height="2.7"/>
<polygon id="polygon726" fill="#2A2A29" points="104.1,-52.8 105.1,-51.8 107.8,-51.8 108.8,-52.8 "/>
<polygon id="polygon728" fill="#474747" points="108.8,-52.8 107.8,-51.8 107.8,-49.1 108.8,-48.1 "/>
<polygon id="polygon730" fill="#595959" points="108.8,-48.1 107.8,-49.1 105.1,-49.1 104.1,-48.1 "/>
<polygon id="polygon732" fill="#373737" points="104.1,-48.1 105.1,-49.1 105.1,-51.8 104.1,-52.8 "/>
</svg>
