<?xml version="1.0" encoding="utf-8"?>
<!-- Generator: Adobe Illustrator 18.0.0, SVG Export Plug-In . SVG Version: 6.00 Build 0)  -->
<!DOCTYPE svg PUBLIC "-//W3C//DTD SVG 1.1//EN" "http://www.w3.org/Graphics/SVG/1.1/DTD/svg11.dtd">
<svg version="1.1" xmlns="http://www.w3.org/2000/svg" xmlns:xlink="http://www.w3.org/1999/xlink" x="0px" y="0px"
	 viewBox="0 0 144 152" enable-background="new 0 0 144 152" xml:space="preserve">
<g id="work" display="none">
	<g id="logotype" display="inline">
		<g id="logotype_original">
		</g>
		<g id="k_development">
		</g>
		<g id="r_development">
		</g>
		<g id="e_development">
		</g>
	</g>
	<g id="logo_v1" display="inline">
	</g>
	<g id="logo_v2" display="inline">
	</g>
	<g id="logo_v3__x28_stroke_x29_" display="inline">
		<g id="logo-8pt-stroke">
		</g>
		<g id="logo-9pt-stroke">
		</g>
		<g id="logo-9pt-expanded">
		</g>
	</g>
</g>
<g id="gradient">
</g>
<g id="white">
</g>
<g id="black">
</g>
<g id="purple">
	<path fill="#430098" d="M100.8,36H43.2c-4,0-7.2,3.2-7.2,7.2v65.6c0,4,3.2,7.2,7.2,7.2h57.6c4,0,7.2-3.2,7.2-7.2V43.2
		C108,39.2,104.8,36,100.8,36z M54,104V88l9,8L54,104z M82,104V80.1c0-1.9-0.9-4.1-5-4.1c-8.1,0-17.3,4.1-17.3,4.1L54,82.7V48h8
		v22.7c4-1.3,9.6-2.7,15-2.7c4.9,0,7.9,1.9,9.5,3.6C90,75.1,90,79.5,90,80l0,24H82z M84,61h-8c3.1-4.1,5.1-8.5,6-13h8
		C89.5,52.5,87.6,56.9,84,61z"/>
</g>
</svg>
