<?xml version="1.0" encoding="utf-8"?>
<!-- Generator: Adobe Illustrator 17.1.0, SVG Export Plug-In . SVG Version: 6.00 Build 0)  -->
<!DOCTYPE svg PUBLIC "-//W3C//DTD SVG 1.1//EN" "http://www.w3.org/Graphics/SVG/1.1/DTD/svg11.dtd">
<svg version="1.1" id="Layer_1" xmlns="http://www.w3.org/2000/svg" xmlns:xlink="http://www.w3.org/1999/xlink" x="0px" y="0px"
	 width="330.5px" height="123.5px" viewBox="81.5 -0.5 330.5 123.5" enable-background="new 81.5 -0.5 330.5 123.5"
	 xml:space="preserve">
<g id="Layer_2" display="none" opacity="0.3">
</g>
<g id="Layer_3">
</g>
<g id="Recipes:list_1_">
</g>
<g>
	<g id="Homepage_1_">
		<g display="none" opacity="0.3" enable-background="new    ">
			<g display="inline">
				<defs>
					<rect id="SVGID_1_" x="-272.3" y="-1618.3" width="4026.3" height="4527.1"/>
				</defs>
				<clipPath id="SVGID_2_">
					<use xlink:href="#SVGID_1_"  overflow="visible"/>
				</clipPath>
				<g clip-path="url(#SVGID_2_)">
					<polyline fill="none" stroke="#D1D3D4" stroke-width="2.2121" stroke-miterlimit="10" points="401,-549.3 419.3,-525.2 
						834.8,24.9 366.3,625.8 1140.2,909.1 					"/>
					
						<line fill="none" stroke="#D1D3D4" stroke-width="2.2121" stroke-miterlimit="10" x1="419.3" y1="-549.3" x2="366.3" y2="648.9"/>
					
						<line fill="none" stroke="#D1D3D4" stroke-width="2.2121" stroke-miterlimit="10" x1="366.6" y1="641.3" x2="-272.3" y2="-126.4"/>
				</g>
			</g>
		</g>
		<g>
			<path fill="#EF4823" d="M132.8,50.1h-23.9c-5.2,0-9.3-3.3-9.3-9c0-5.7,4.1-9,9.3-9h46.8c1.9,0,6.7,0.9,6.7,6.4
				c0,2.7-0.6,4-2.1,6.1l-32.5,45.5H155c5.2,0,9.3,3.3,9.3,9c0,5.7-4.1,9-9.3,9h-47.9c-4.6,0-8.4-2.3-8.4-7c0-2.3,1.1-4.4,1.9-5.6
				L132.8,50.1z"/>
			<path fill="#EF4823" d="M185.3,77c1.4,10.2,9.9,14.9,19.4,14.9c10.6,0,17.9-8.3,23.3-8.3c4.4,0,8.4,4.4,8.4,8.9
				c0,8.9-18.3,17.4-33.6,17.4c-23.2,0-38.6-16.9-38.6-39.6c0-20.9,15.2-39.9,36.9-39.9c22.3,0,37,20.3,37,37.5c0,6.1-2.7,9.2-9,9.2
				C229.2,77,185.3,77,185.3,77z M217.6,63.2c-1.1-9-6.9-15.7-16.4-15.7c-9.2,0-15.3,7-16.3,15.7H217.6z"/>
			<path fill="#EF4823" d="M311.7,32h-5.9V19.8c0-6.9-4.3-11.4-10.3-11.4c-6,0-10.3,4.6-10.3,11.4v12.3l-14.2,0V19.8
				c0-6.9-4.3-11.4-10.3-11.4c-6,0-10.3,4.6-10.3,11.4v12.3h-4.6c-5.1,0-9,3.9-9,9c0,5.6,3.4,9,9,9h4.6v47.5
				c0,6.9,4.3,11.4,10.3,11.4c6,0,10.3-4.6,10.3-11.4V50.1l14.2,0v47.5c0,6.9,4.3,11.4,10.3,11.4c6,0,10.3-4.6,10.3-11.4V50.1h5.9
				c5.3,0,9.9-2.6,9.9-9C321.6,34.5,317,32,311.7,32z"/>
			<path fill="#EF4823" d="M393.9,95.5c0,5.3,0,13.4-9.9,13.4c-6,0-8.4-3.3-9.9-8.7c-5.3,6.3-11.7,9.6-19.6,9.6
				c-19.3,0-34-16.4-34-39.6c0-22.6,15.2-39.9,34-39.9c7.6,0,15,3,19.6,9.4c0.6-5,4.9-8.6,9.9-8.6c9.9,0,9.9,8.2,9.9,13.4V95.5z
				 M357.5,91c10.7,0,15.9-10.9,15.9-20.7s-5-21-15.9-21c-11.3,0-16.3,11.2-16.3,21S346.3,91,357.5,91z"/>
		</g>
	</g>
	<g id="grid" display="none" opacity="0.71">
		<g id="Recipes:list" display="inline">
		</g>
		<g id="Mobile_Home" display="inline">
		</g>
		<g id="Homepage" display="inline">
			<g id="Baseline_3_" opacity="0.55">
				<line fill="none" stroke="#27AAE1" stroke-width="0.5" stroke-miterlimit="10" x1="91" y1="1" x2="2893.1" y2="1"/>
				<line fill="none" stroke="#27AAE1" stroke-width="0.5" stroke-miterlimit="10" x1="91" y1="36.7" x2="2893.1" y2="36.7"/>
				<line fill="none" stroke="#27AAE1" stroke-width="0.5" stroke-miterlimit="10" x1="91" y1="72.5" x2="2893.1" y2="72.5"/>
				<line fill="none" stroke="#27AAE1" stroke-width="0.5" stroke-miterlimit="10" x1="91" y1="108.2" x2="2893.1" y2="108.2"/>
				<line fill="none" stroke="#27AAE1" stroke-width="0.5" stroke-miterlimit="10" x1="91" y1="144" x2="2893.1" y2="144"/>
			</g>
			<g id="_x31_0s_1_" display="none">
				<g id="_x31_0s_6_" display="inline">
					
						<line fill="none" stroke="#39B54A" stroke-width="0.25" stroke-miterlimit="10" x1="312.8" y1="-106.3" x2="312.8" y2="12333.9"/>
					
						<line fill="none" stroke="#39B54A" stroke-width="0.25" stroke-miterlimit="10" x1="380.5" y1="12333.9" x2="380.5" y2="-106.3"/>
				</g>
			</g>
			<g id="_x31_2s_3_">
				
					<line fill="none" stroke="#27AAE1" stroke-width="0.75" stroke-miterlimit="10" x1="262.8" y1="12333.9" x2="262.8" y2="-106.3"/>
				<line fill="none" stroke="#27AAE1" stroke-width="0.25" stroke-miterlimit="10" x1="93.8" y1="-106.3" x2="93.8" y2="12333.9"/>
				
					<line fill="none" stroke="#27AAE1" stroke-width="0.75" stroke-miterlimit="10" x1="332.9" y1="-106.3" x2="332.9" y2="12333.9"/>
			</g>
			<g id="Layer_8">
			</g>
		</g>
	</g>
</g>
</svg>
