<?xml version="1.0" encoding="utf-8"?>
<!-- Generator: Adobe Illustrator 17.1.0, SVG Export Plug-In . SVG Version: 6.00 Build 0)  -->
<!DOCTYPE svg PUBLIC "-//W3C//DTD SVG 1.1 Basic//EN" "http://www.w3.org/Graphics/SVG/1.1/DTD/svg11-basic.dtd">
<svg version="1.1" baseProfile="basic" id="use269479-7"
	 xmlns="http://www.w3.org/2000/svg" xmlns:xlink="http://www.w3.org/1999/xlink" x="0px" y="0px" width="331.667px"
	 height="209.167px" viewBox="-8.333 -7.833 331.667 209.167" xml:space="preserve">
<symbol  id="Female_Header" viewBox="-4.5 -4.499 9 8.999">
	<g id="breadboard-9_38_" transform="translate(0,-8.276761e-5)">
		<polygon id="connector0pin-2_38_" fill="none" points="-1.74,1.739 1.739,1.739 1.739,-1.74 -1.74,-1.74 		"/>
		<polygon id="connector0terminal-7_38_" fill="none" points="-1.352,1.412 1.346,1.412 1.346,-1.409 -1.352,-1.409 		"/>
		<polygon id="rect268452-8_38_" fill="#404040" points="-4.5,4.5 4.5,4.5 4.5,-4.499 -4.5,-4.499 		"/>
		<polygon id="rect268454-1_38_" points="-1.737,1.739 1.739,1.739 1.739,-1.737 -1.737,-1.737 		"/>
		<polygon id="polygon268456-7_38_" fill="#2A2A29" points="3.02,3.02 -3.02,3.02 -1.74,1.739 1.739,1.739 		"/>
		<polygon id="polygon268458-5_38_" fill="#474747" points="3.02,-3.02 3.02,3.02 1.739,1.735 1.739,-1.741 		"/>
		<polygon id="polygon268460-7_38_" fill="#595959" points="-3.02,-3.02 3.019,-3.02 1.738,-1.741 -1.74,-1.741 		"/>
		<polygon id="polygon268462-5_38_" fill="#373737" points="-3.022,3.02 -3.022,-3.02 -1.74,-1.739 -1.74,1.739 		"/>
	</g>
</symbol>
<g id="Layer_2">
</g>
<g id="svg3648" inkscape:version="0.48.2 r9819" sodipodi:docname="breadboard-beaglebone-a5.svg" xmlns:inkscape="http://www.inkscape.org/namespaces/inkscape" xmlns:dc="http://purl.org/dc/elements/1.1/" xmlns:rdf="http://www.w3.org/1999/02/22-rdf-syntax-ns#" xmlns:svg="http://www.w3.org/2000/svg" xmlns:sodipodi="http://sodipodi.sourceforge.net/DTD/sodipodi-0.dtd" xmlns:cc="http://creativecommons.org/ns#">
	<g id="g8134" transform="matrix(0.99956917,0,0,1,0.48406035,-858.8623)">
		<path d="M315.132,901.322v108.58c0,23.45-19.008,42.46-42.458,42.46H32.42c-12.936,0-23.42-10.49-23.42-23.42v-146.66
			c0-12.93,10.485-23.42,23.42-23.42h240.254C296.124,858.862,315.132,877.872,315.132,901.322z"/>
	</g>
	
		<sodipodi:namedview  inkscape:window-y="30" inkscape:window-maximized="0" inkscape:window-width="1253" inkscape:pageopacity="0" inkscape:window-x="0" inkscape:window-height="840" inkscape:pageshadow="2" inkscape:current-layer="svg3648" inkscape:cx="196.18058" bordercolor="#666666" gridtolerance="10" guidetolerance="10" borderopacity="1" inkscape:cy="58.335366" showgrid="false" pagecolor="#ffffff" objecttolerance="10" inkscape:zoom="2.0825397" id="namedview402">
		</sodipodi:namedview>
	<path id="path14366" inkscape:connector-curvature="0" fill="#FFFFFF" d="M301.619,173.849c0,3.107-2.518,5.625-5.625,5.625
		s-5.625-2.518-5.625-5.625s2.518-5.625,5.625-5.625S301.619,170.743,301.619,173.849z"/>
	<rect id="rect14414" x="143.182" y="65.504" fill="#333333" width="51.455" height="53.156"/>
	<rect id="rect14414_1_" x="91.953" y="26.971" fill="#333333" width="41.63" height="39.104"/>
	<rect id="rect14414_2_" x="214.356" y="39.115" fill="#333333" width="32.399" height="31.126"/>
	<rect id="rect14414_4_" x="79.357" y="129.173" fill="#333333" width="21.143" height="20.313"/>
	<rect id="rect14414_5_" x="89.928" y="76.437" fill="#333333" width="15.548" height="14.938"/>
	<rect id="rect14414_3_" x="214.356" y="81.324" fill="#333333" width="32.399" height="50.239"/>
	<path id="path14548" inkscape:connector-curvature="0" fill="#FFFFFF" d="M301.619,20.673c0,3.107-2.518,5.625-5.625,5.625
		s-5.625-2.518-5.625-5.625s2.518-5.625,5.625-5.625S301.619,17.566,301.619,20.673z"/>
	<path id="path14550" inkscape:connector-curvature="0" fill="#FFFFFF" d="M67.279,11.207c0.002,3.106-2.514,5.626-5.62,5.628
		c-3.106,0.002-5.626-2.514-5.628-5.62c0-0.003,0-0.005,0-0.008c-0.002-3.106,2.514-5.626,5.62-5.628
		c3.106-0.002,5.626,2.514,5.628,5.62C67.279,11.201,67.279,11.204,67.279,11.207z"/>
	<path id="path14552" inkscape:connector-curvature="0" fill="#FFFFFF" d="M67.281,182.021c0,3.107-2.518,5.625-5.625,5.625
		c-3.107,0-5.625-2.518-5.625-5.625s2.518-5.625,5.625-5.625S67.281,178.914,67.281,182.021L67.281,182.021z"/>
	<g id="g14685" transform="translate(274.46457,119.7421)">
		<g id="g14687">
			<g id="g14689">
				<path id="path14691" inkscape:connector-curvature="0" fill="#7A7A7A" d="M40.32,36.1V1.34c-1.505,0-1.696-1.148-1.696-1.341H0
					v37.44h38.624C38.624,37.248,38.815,36.1,40.32,36.1z"/>
			</g>
		</g>
		<path id="path14693" inkscape:connector-curvature="0" d="M16.168,26.498c0-0.268,0.222-0.463,0.489-0.438l18.252,1.877
			c0.268,0.027,0.488,0.264,0.488,0.533v2.982c0,0.264-0.222,0.51-0.488,0.533l-18.252,1.883c-0.269,0.029-0.489-0.176-0.489-0.436
			v-0.438c0-0.264,0.222-0.508,0.489-0.531l16.591-1.42c0.269-0.021,0.489-0.258,0.489-0.527v-1.111
			c0-0.262-0.222-0.506-0.489-0.529l-16.591-1.418c-0.269-0.023-0.489-0.26-0.489-0.531V26.498z"/>
		<path id="path14695" inkscape:connector-curvature="0" d="M16.168,4.005c0-0.262,0.222-0.465,0.489-0.439L34.91,5.452
			c0.269,0.035,0.488,0.264,0.488,0.533v2.982c0,0.266-0.222,0.508-0.488,0.535l-18.252,1.879c-0.269,0.033-0.489-0.172-0.489-0.434
			v-0.439c0-0.266,0.222-0.506,0.489-0.535l16.591-1.418c0.269-0.023,0.489-0.25,0.489-0.531V6.917c0-0.256-0.222-0.508-0.489-0.533
			L16.658,4.972c-0.269-0.031-0.489-0.25-0.489-0.533L16.168,4.005L16.168,4.005z"/>
		<g id="g14697">
			<polygon id="polygon14699" fill="none" points="32.287,6.312 32.287,8.628 33.727,8.519 33.727,6.435 			"/>
			<polygon id="polygon14701" fill="#939393" points="33.727,8.519 32.287,8.628 32.287,6.312 33.727,6.435 			"/>
			<polygon id="polygon14703" fill="#666666" points="31.684,8.693 32.287,8.628 32.287,6.312 31.684,6.257 			"/>
		</g>
		<g id="g14705">
			<polygon id="polygon14707" fill="none" points="32.287,28.803 32.287,31.121 33.727,31.012 33.727,28.918 			"/>
			<polygon id="polygon14709" fill="#939393" points="33.727,31.012 32.287,31.121 32.287,28.803 33.727,28.918 			"/>
			<polygon id="polygon14711" fill="#666666" points="31.684,31.186 32.287,31.121 32.287,28.803 31.684,28.744 			"/>
		</g>
		<rect id="rect14713" x="18.828" y="14.187" fill="#666666" width="3.5" height="9.507"/>
		<rect id="rect14715" x="16.89" y="14.187" fill="#939393" width="1.938" height="9.507"/>
		<path id="path14717" inkscape:connector-curvature="0" d="M37.059,24.268c0-0.264-0.221-0.502-0.489-0.514l-20.182-1.197
			c-0.27-0.018-0.491-0.25-0.491-0.516v-6.653c0-0.266,0.222-0.5,0.491-0.521l20.182-1.184c0.27-0.014,0.489-0.248,0.489-0.516
			v-0.891c0-0.264-0.221-0.463-0.489-0.455l-22.942,1.643c-0.269,0.027-0.493,0.25-0.493,0.529v9.444
			c0,0.266,0.225,0.506,0.493,0.529l22.942,1.637c0.27,0.018,0.493-0.188,0.493-0.451L37.059,24.268L37.059,24.268z"/>
		
			<line id="line14719" fill="none" stroke="#FFFFFF" stroke-width="0.8064" stroke-linecap="round" stroke-opacity="0.24" x1="1.064" y1="36.873" x2="37.906" y2="36.873"/>
		
			<line id="line14721" fill="none" stroke="#FFFFFF" stroke-width="0.4032" stroke-linecap="round" stroke-opacity="0.15" x1="1.064" y1="0.566" x2="38.054" y2="0.566"/>
		<path id="path14723" inkscape:connector-curvature="0" fill="#515151" d="M40.32,1.34c-0.451,0-0.773-0.109-1.02-0.259v35.276
			c0.246-0.148,0.568-0.258,1.02-0.258V1.34z"/>
		
			<line id="line14725" fill="none" stroke="#FFFFFF" stroke-width="0.4032" stroke-linecap="round" stroke-opacity="0.15" x1="39.188" y1="1.814" x2="39.188" y2="35.625"/>
	</g>
	<g id="g14874" transform="matrix(-1.3239874,0,0,-1.2402686,51.820867,175.2732)">
		<g id="g14834">
			<g id="g14836">
				<rect id="rect14838" x="1.701" y="0.888" fill="#232323" width="32.97" height="23.733"/>
				<rect id="rect14840" x="2.133" y="22.404" fill="#494949" width="31.934" height="1.644"/>
				<rect id="rect14842" x="2.133" y="17.031" fill="#3D3D3D" fill-opacity="0.3" width="31.934" height="5.369"/>
				<rect id="rect14844" x="2.133" y="1.406" width="32.971" height="1.619"/>
				<rect id="rect14846" x="2.133" y="2.975" fill="#0F0F0F" fill-opacity="0.4" width="32.971" height="5.828"/>
			</g>
			<rect id="rect14848" x="1.701" y="0.888" opacity="0.2" width="0.592" height="23.733"/>
		</g>
		
			<line id="line14850" opacity="0.5" fill="none" stroke="#000000" stroke-width="0.25" stroke-miterlimit="10" x1="4.511" y1="0.888" x2="4.511" y2="24.621"/>
		<g id="g14852">
			<rect id="rect14854" x="31.175" y="0.866" opacity="0.25" width="1.287" height="23.729"/>
			
				<path id="path14856" inkscape:connector-curvature="0" opacity="0.25" stroke="#565656" stroke-width="0.25" stroke-miterlimit="10" d="
				M32.18,20.297V5.216H18.882c-4.165,0-7.541,3.376-7.541,7.541c0,4.164,3.376,7.541,7.541,7.541L32.18,20.297L32.18,20.297z"/>
		</g>
		<g id="g14858">
			<path id="path14860" inkscape:connector-curvature="0" fill="#232323" d="M32.18,20.297V5.216H18.882
				c-4.165,0-7.541,3.376-7.541,7.541c0,4.164,3.376,7.541,7.541,7.541L32.18,20.297L32.18,20.297z"/>
			<rect id="rect14862" x="31.452" y="0" fill="#232323" width="7.688" height="25.512"/>
		</g>
		<rect id="rect14864" x="0" y="9.899" fill="#6D6D6D" width="1.701" height="5.713"/>
		<rect id="rect14866" x="0.726" y="7.146" fill="#494949" width="0.975" height="11.22"/>
	</g>
	<g id="magjack" transform="matrix(1.2499999,0,0,1.2499999,21.137486,60.14724)">
		<g id="g45897" transform="matrix(0,-1,1,0,-8.45496,51.654)">
			<g id="g45899">
				<g id="g45901">
					<g id="g45903">
						<path id="path45905" inkscape:connector-curvature="0" fill="#7A7A7A" d="M8.455-8.455v60.109h43.199l0-60.109
							C51.464-8.455,8.648-8.455,8.455-8.455z"/>
					</g>
				</g>
				<g id="g45907">
					
						<line id="line45909" fill="none" stroke="#FFFFFF" stroke-width="0.8064" stroke-linecap="round" stroke-opacity="0.5" x1="51.088" y1="51.088" x2="51.088" y2="17.209"/>
					
						<line id="line45911" fill="none" stroke="#FFFFFF" stroke-width="0.8064" stroke-linecap="round" stroke-opacity="0.5" x1="9.021" y1="51.088" x2="9.021" y2="17.209"/>
				</g>
			</g>
			<g id="g45913">
				<path id="path45915" inkscape:connector-curvature="0" fill="#666666" d="M39.549,0.371l0.098-7.992
					c0.027-0.303,0.258-0.552,0.559-0.553l0.16-0.001l-6.801,0.012h0.168c0.282,0,0.536,0.25,0.562,0.551l0.121,7.992L39.549,0.371z
					"/>
				<path id="path45917" inkscape:connector-curvature="0" d="M40.363-8.176c0.278,0,0.5,0.25,0.48,0.551L40.38,15.587
					c-0.025,0.586-0.423,1.07-0.928,1.071l-4.906,0.008c-0.501,0.001-0.924-0.491-0.936-1.066L33.089-7.612
					c-0.03-0.303,0.194-0.552,0.474-0.553h0.166c0.283,0,0.537,0.25,0.562,0.551l0.4,19.815c0.016,0.617,0.482,1.133,1.1,1.132
					l2.429-0.004c0.562-0.001,1.082-0.523,1.099-1.135l0.324-19.816c0.028-0.303,0.258-0.552,0.561-0.553L40.363-8.176L40.363-8.176
					z"/>
				<g id="g45919">
					<path id="path45921" inkscape:connector-curvature="0" fill="#666666" d="M35.83,13.333l2.304-0.004
						c0.533,0,1.054-0.503,1.104-1.106l0.082-0.987h-4.633l0.036,0.995C34.773,12.838,35.244,13.334,35.83,13.333z"/>
				</g>
				<g id="g45923">
					<path id="path45925" inkscape:connector-curvature="0" fill="#999999" d="M34.674,11.592c0.05,0.629,0.557,1.141,1.15,1.14
						l2.341-0.004c0.54-0.001,1.099-0.521,1.151-1.144l-0.064,0.639c-0.051,0.604-0.572,1.106-1.104,1.106l-2.305,0.004
						c-0.585,0.001-1.057-0.495-1.105-1.104L34.674,11.592z"/>
				</g>
			</g>
			<g id="g45927">
				<path id="path45929" inkscape:connector-curvature="0" fill="#666666" d="M25.355,0.371l0.098-7.992
					c0.029-0.303,0.259-0.552,0.562-0.553l0.16-0.001l-6.802,0.012h0.167c0.282,0,0.536,0.25,0.562,0.551l0.121,7.992L25.355,0.371z
					"/>
				<path id="path45931" inkscape:connector-curvature="0" d="M26.171-8.176c0.278,0,0.501,0.25,0.481,0.551l-0.463,23.212
					c-0.025,0.586-0.425,1.07-0.93,1.071l-4.906,0.008c-0.501,0.001-0.925-0.491-0.935-1.066L18.896-7.612
					c-0.029-0.303,0.193-0.552,0.473-0.553h0.166c0.283,0,0.537,0.25,0.562,0.551L20.5,12.202c0.014,0.617,0.48,1.133,1.099,1.132
					l2.429-0.004c0.562-0.001,1.082-0.523,1.1-1.135l0.324-19.816c0.026-0.303,0.258-0.552,0.56-0.553L26.171-8.176L26.171-8.176z"
					/>
				<g id="g45933">
					<path id="path45935" inkscape:connector-curvature="0" fill="#666666" d="M21.637,13.333l2.304-0.004
						c0.533,0,1.055-0.503,1.104-1.106l0.083-0.987h-4.633l0.035,0.995C20.58,12.838,21.052,13.334,21.637,13.333z"/>
				</g>
				<g id="g45937">
					<path id="path45939" inkscape:connector-curvature="0" fill="#999999" d="M20.48,11.592c0.051,0.629,0.559,1.141,1.152,1.14
						l2.34-0.004c0.541-0.001,1.1-0.521,1.15-1.144l-0.064,0.639c-0.05,0.604-0.57,1.106-1.104,1.106l-2.305,0.004
						c-0.586,0.001-1.058-0.495-1.105-1.104L20.48,11.592z"/>
				</g>
			</g>
			<g id="g45941">
				<g id="g45943">
					
						<path id="path45945" inkscape:connector-curvature="0" fill="none" stroke="#7A7A7A" stroke-width="0.75" stroke-miterlimit="10" d="
						M8.982-7.123C7.707-2.451,5.499-1.169,5.499,5.424c0,2.833,0,4.708,0,5.375s-0.375,3.833-1.417,3.833"/>
					<path id="path45947" inkscape:connector-curvature="0" fill="#CCCCCC" d="M4.844,14.621l-0.391-0.727
						c-0.117,0.222-0.243,0.363-0.373,0.363v0.75C4.383,15.007,4.634,14.86,4.844,14.621z"/>
				</g>
				<g id="g45949">
					
						<path id="path45951" inkscape:connector-curvature="0" fill="none" stroke="#7A7A7A" stroke-width="0.75" stroke-miterlimit="10" d="
						M51.129-7.123c1.275,4.672,3.484,5.953,3.484,12.547c0,2.833,0,4.708,0,5.375s0.375,3.833,1.416,3.833"/>
					<path id="path45953" inkscape:connector-curvature="0" fill="#CCCCCC" d="M55.266,14.621l0.39-0.727
						c0.119,0.222,0.244,0.363,0.373,0.363v0.75C55.727,15.007,55.476,14.86,55.266,14.621z"/>
				</g>
			</g>
			
				<line id="line45955" fill="none" stroke="#FFFFFF" stroke-width="0.8064" stroke-linecap="round" stroke-opacity="0.5" x1="49.804" y1="51.088" x2="10.304" y2="51.088"/>
			<g id="g45957">
				
					<line id="line45959" fill="none" stroke="#4D4D4D" stroke-width="0.8064" stroke-linecap="round" x1="46.912" y1="50.666" x2="32.183" y2="50.666"/>
				
					<line id="line45961" fill="none" stroke="#4D4D4D" stroke-width="0.8064" stroke-linecap="round" x1="27.927" y1="50.666" x2="13.197" y2="50.666"/>
			</g>
		</g>
	</g>
	<g>
		
			<use xlink:href="#Female_Header"  width="9" height="8.999" x="-4.5" y="-4.499" transform="matrix(1 0 0 -1 87.9094 177.786)" overflow="visible"/>
		
			<use xlink:href="#Female_Header"  width="9" height="8.999" x="-4.5" y="-4.499" transform="matrix(1 0 0 -1 78.909 177.7847)" overflow="visible"/>
		
			<use xlink:href="#Female_Header"  width="9" height="8.999" x="-4.5" y="-4.499" transform="matrix(1 0 0 -1 87.9094 186.7856)" overflow="visible"/>
		
			<use xlink:href="#Female_Header"  width="9" height="8.999" x="-4.5" y="-4.499" transform="matrix(1 0 0 -1 78.909 186.7844)" overflow="visible"/>
		
			<use xlink:href="#Female_Header"  width="9" height="8.999" x="-4.5" y="-4.499" transform="matrix(1 0 0 -1 105.9092 177.786)" overflow="visible"/>
		
			<use xlink:href="#Female_Header"  width="9" height="8.999" x="-4.5" y="-4.499" transform="matrix(1 0 0 -1 96.9088 177.7847)" overflow="visible"/>
		
			<use xlink:href="#Female_Header"  width="9" height="8.999" x="-4.5" y="-4.499" transform="matrix(1 0 0 -1 105.9092 186.7856)" overflow="visible"/>
		
			<use xlink:href="#Female_Header"  width="9" height="8.999" x="-4.5" y="-4.499" transform="matrix(1 0 0 -1 96.9088 186.7844)" overflow="visible"/>
		
			<use xlink:href="#Female_Header"  width="9" height="8.999" x="-4.5" y="-4.499" transform="matrix(1 0 0 -1 123.909 177.786)" overflow="visible"/>
		
			<use xlink:href="#Female_Header"  width="9" height="8.999" x="-4.5" y="-4.499" transform="matrix(1 0 0 -1 114.9085 177.7847)" overflow="visible"/>
		
			<use xlink:href="#Female_Header"  width="9" height="8.999" x="-4.5" y="-4.499" transform="matrix(1 0 0 -1 123.909 186.7856)" overflow="visible"/>
		
			<use xlink:href="#Female_Header"  width="9" height="8.999" x="-4.5" y="-4.499" transform="matrix(1 0 0 -1 114.9085 186.7844)" overflow="visible"/>
		
			<use xlink:href="#Female_Header"  width="9" height="8.999" x="-4.5" y="-4.499" transform="matrix(1 0 0 -1 141.9088 177.786)" overflow="visible"/>
		
			<use xlink:href="#Female_Header"  width="9" height="8.999" x="-4.5" y="-4.499" transform="matrix(1 0 0 -1 132.9083 177.7847)" overflow="visible"/>
		
			<use xlink:href="#Female_Header"  width="9" height="8.999" x="-4.5" y="-4.499" transform="matrix(1 0 0 -1 141.9088 186.7856)" overflow="visible"/>
		
			<use xlink:href="#Female_Header"  width="9" height="8.999" x="-4.5" y="-4.499" transform="matrix(1 0 0 -1 132.9083 186.7844)" overflow="visible"/>
		
			<use xlink:href="#Female_Header"  width="9" height="8.999" x="-4.5" y="-4.499" transform="matrix(1 0 0 -1 159.9086 177.786)" overflow="visible"/>
		
			<use xlink:href="#Female_Header"  width="9" height="8.999" x="-4.5" y="-4.499" transform="matrix(1 0 0 -1 150.9081 177.7847)" overflow="visible"/>
		
			<use xlink:href="#Female_Header"  width="9" height="8.999" x="-4.5" y="-4.499" transform="matrix(1 0 0 -1 159.9086 186.7856)" overflow="visible"/>
		
			<use xlink:href="#Female_Header"  width="9" height="8.999" x="-4.5" y="-4.499" transform="matrix(1 0 0 -1 150.9081 186.7844)" overflow="visible"/>
		
			<use xlink:href="#Female_Header"  width="9" height="8.999" x="-4.5" y="-4.499" transform="matrix(1 0 0 -1 177.9083 177.786)" overflow="visible"/>
		
			<use xlink:href="#Female_Header"  width="9" height="8.999" x="-4.5" y="-4.499" transform="matrix(1 0 0 -1 168.9079 177.7847)" overflow="visible"/>
		
			<use xlink:href="#Female_Header"  width="9" height="8.999" x="-4.5" y="-4.499" transform="matrix(1 0 0 -1 177.9083 186.7856)" overflow="visible"/>
		
			<use xlink:href="#Female_Header"  width="9" height="8.999" x="-4.5" y="-4.499" transform="matrix(1 0 0 -1 168.9079 186.7844)" overflow="visible"/>
		
			<use xlink:href="#Female_Header"  width="9" height="8.999" x="-4.5" y="-4.499" transform="matrix(1 0 0 -1 195.9081 177.786)" overflow="visible"/>
		
			<use xlink:href="#Female_Header"  width="9" height="8.999" x="-4.5" y="-4.499" transform="matrix(1 0 0 -1 186.9077 177.7847)" overflow="visible"/>
		
			<use xlink:href="#Female_Header"  width="9" height="8.999" x="-4.5" y="-4.499" transform="matrix(1 0 0 -1 195.9081 186.7856)" overflow="visible"/>
		
			<use xlink:href="#Female_Header"  width="9" height="8.999" x="-4.5" y="-4.499" transform="matrix(1 0 0 -1 186.9077 186.7844)" overflow="visible"/>
		
			<use xlink:href="#Female_Header"  width="9" height="8.999" x="-4.5" y="-4.499" transform="matrix(1 0 0 -1 213.9079 177.786)" overflow="visible"/>
		
			<use xlink:href="#Female_Header"  width="9" height="8.999" x="-4.5" y="-4.499" transform="matrix(1 0 0 -1 204.9074 177.7847)" overflow="visible"/>
		
			<use xlink:href="#Female_Header"  width="9" height="8.999" x="-4.5" y="-4.499" transform="matrix(1 0 0 -1 213.9079 186.7856)" overflow="visible"/>
		
			<use xlink:href="#Female_Header"  width="9" height="8.999" x="-4.5" y="-4.499" transform="matrix(1 0 0 -1 204.9074 186.7844)" overflow="visible"/>
		
			<use xlink:href="#Female_Header"  width="9" height="8.999" x="-4.5" y="-4.499" transform="matrix(1 0 0 -1 231.9077 177.786)" overflow="visible"/>
		
			<use xlink:href="#Female_Header"  width="9" height="8.999" x="-4.5" y="-4.499" transform="matrix(1 0 0 -1 222.9072 177.7847)" overflow="visible"/>
		
			<use xlink:href="#Female_Header"  width="9" height="8.999" x="-4.5" y="-4.499" transform="matrix(1 0 0 -1 231.9077 186.7856)" overflow="visible"/>
		
			<use xlink:href="#Female_Header"  width="9" height="8.999" x="-4.5" y="-4.499" transform="matrix(1 0 0 -1 222.9072 186.7844)" overflow="visible"/>
		
			<use xlink:href="#Female_Header"  width="9" height="8.999" x="-4.5" y="-4.499" transform="matrix(1 0 0 -1 249.9074 177.786)" overflow="visible"/>
		
			<use xlink:href="#Female_Header"  width="9" height="8.999" x="-4.5" y="-4.499" transform="matrix(1 0 0 -1 240.907 177.7847)" overflow="visible"/>
		
			<use xlink:href="#Female_Header"  width="9" height="8.999" x="-4.5" y="-4.499" transform="matrix(1 0 0 -1 249.9074 186.7856)" overflow="visible"/>
		
			<use xlink:href="#Female_Header"  width="9" height="8.999" x="-4.5" y="-4.499" transform="matrix(1 0 0 -1 240.907 186.7844)" overflow="visible"/>
		
			<use xlink:href="#Female_Header"  width="9" height="8.999" x="-4.5" y="-4.499" transform="matrix(1 0 0 -1 267.9072 177.786)" overflow="visible"/>
		
			<use xlink:href="#Female_Header"  width="9" height="8.999" x="-4.5" y="-4.499" transform="matrix(1 0 0 -1 258.9067 177.7847)" overflow="visible"/>
		
			<use xlink:href="#Female_Header"  width="9" height="8.999" x="-4.5" y="-4.499" transform="matrix(1 0 0 -1 267.9072 186.7856)" overflow="visible"/>
		
			<use xlink:href="#Female_Header"  width="9" height="8.999" x="-4.5" y="-4.499" transform="matrix(1 0 0 -1 276.909 177.786)" overflow="visible"/>
		
			<use xlink:href="#Female_Header"  width="9" height="8.999" x="-4.5" y="-4.499" transform="matrix(1 0 0 -1 276.909 186.7856)" overflow="visible"/>
		
			<use xlink:href="#Female_Header"  width="9" height="8.999" x="-4.5" y="-4.499" transform="matrix(1 0 0 -1 258.9067 186.7844)" overflow="visible"/>
	</g>
	<g>
		
			<use xlink:href="#Female_Header"  width="9" height="8.999" x="-4.5" y="-4.499" transform="matrix(1 0 0 -1 87.9094 7.174)" overflow="visible"/>
		
			<use xlink:href="#Female_Header"  width="9" height="8.999" x="-4.5" y="-4.499" transform="matrix(1 0 0 -1 78.909 7.1727)" overflow="visible"/>
		
			<use xlink:href="#Female_Header"  width="9" height="8.999" x="-4.5" y="-4.499" transform="matrix(1 0 0 -1 87.9094 16.1737)" overflow="visible"/>
		
			<use xlink:href="#Female_Header"  width="9" height="8.999" x="-4.5" y="-4.499" transform="matrix(1 0 0 -1 78.909 16.1724)" overflow="visible"/>
		
			<use xlink:href="#Female_Header"  width="9" height="8.999" x="-4.5" y="-4.499" transform="matrix(1 0 0 -1 105.9092 7.174)" overflow="visible"/>
		
			<use xlink:href="#Female_Header"  width="9" height="8.999" x="-4.5" y="-4.499" transform="matrix(1 0 0 -1 96.9088 7.1727)" overflow="visible"/>
		
			<use xlink:href="#Female_Header"  width="9" height="8.999" x="-4.5" y="-4.499" transform="matrix(1 0 0 -1 105.9092 16.1737)" overflow="visible"/>
		
			<use xlink:href="#Female_Header"  width="9" height="8.999" x="-4.5" y="-4.499" transform="matrix(1 0 0 -1 96.9088 16.1724)" overflow="visible"/>
		
			<use xlink:href="#Female_Header"  width="9" height="8.999" x="-4.5" y="-4.499" transform="matrix(1 0 0 -1 123.909 7.174)" overflow="visible"/>
		
			<use xlink:href="#Female_Header"  width="9" height="8.999" x="-4.5" y="-4.499" transform="matrix(1 0 0 -1 114.9085 7.1727)" overflow="visible"/>
		
			<use xlink:href="#Female_Header"  width="9" height="8.999" x="-4.5" y="-4.499" transform="matrix(1 0 0 -1 123.909 16.1737)" overflow="visible"/>
		
			<use xlink:href="#Female_Header"  width="9" height="8.999" x="-4.5" y="-4.499" transform="matrix(1 0 0 -1 114.9085 16.1724)" overflow="visible"/>
		
			<use xlink:href="#Female_Header"  width="9" height="8.999" x="-4.5" y="-4.499" transform="matrix(1 0 0 -1 141.9088 7.174)" overflow="visible"/>
		
			<use xlink:href="#Female_Header"  width="9" height="8.999" x="-4.5" y="-4.499" transform="matrix(1 0 0 -1 132.9083 7.1727)" overflow="visible"/>
		
			<use xlink:href="#Female_Header"  width="9" height="8.999" x="-4.5" y="-4.499" transform="matrix(1 0 0 -1 141.9088 16.1737)" overflow="visible"/>
		
			<use xlink:href="#Female_Header"  width="9" height="8.999" x="-4.5" y="-4.499" transform="matrix(1 0 0 -1 132.9083 16.1724)" overflow="visible"/>
		
			<use xlink:href="#Female_Header"  width="9" height="8.999" x="-4.5" y="-4.499" transform="matrix(1 0 0 -1 159.9086 7.174)" overflow="visible"/>
		
			<use xlink:href="#Female_Header"  width="9" height="8.999" x="-4.5" y="-4.499" transform="matrix(1 0 0 -1 150.9081 7.1727)" overflow="visible"/>
		
			<use xlink:href="#Female_Header"  width="9" height="8.999" x="-4.5" y="-4.499" transform="matrix(1 0 0 -1 159.9086 16.1737)" overflow="visible"/>
		
			<use xlink:href="#Female_Header"  width="9" height="8.999" x="-4.5" y="-4.499" transform="matrix(1 0 0 -1 150.9081 16.1724)" overflow="visible"/>
		
			<use xlink:href="#Female_Header"  width="9" height="8.999" x="-4.5" y="-4.499" transform="matrix(1 0 0 -1 177.9083 7.174)" overflow="visible"/>
		
			<use xlink:href="#Female_Header"  width="9" height="8.999" x="-4.5" y="-4.499" transform="matrix(1 0 0 -1 168.9079 7.1727)" overflow="visible"/>
		
			<use xlink:href="#Female_Header"  width="9" height="8.999" x="-4.5" y="-4.499" transform="matrix(1 0 0 -1 177.9083 16.1737)" overflow="visible"/>
		
			<use xlink:href="#Female_Header"  width="9" height="8.999" x="-4.5" y="-4.499" transform="matrix(1 0 0 -1 168.9079 16.1724)" overflow="visible"/>
		
			<use xlink:href="#Female_Header"  width="9" height="8.999" x="-4.5" y="-4.499" transform="matrix(1 0 0 -1 195.9081 7.174)" overflow="visible"/>
		
			<use xlink:href="#Female_Header"  width="9" height="8.999" x="-4.5" y="-4.499" transform="matrix(1 0 0 -1 186.9077 7.1727)" overflow="visible"/>
		
			<use xlink:href="#Female_Header"  width="9" height="8.999" x="-4.5" y="-4.499" transform="matrix(1 0 0 -1 195.9081 16.1737)" overflow="visible"/>
		
			<use xlink:href="#Female_Header"  width="9" height="8.999" x="-4.5" y="-4.499" transform="matrix(1 0 0 -1 186.9077 16.1724)" overflow="visible"/>
		
			<use xlink:href="#Female_Header"  width="9" height="8.999" x="-4.5" y="-4.499" transform="matrix(1 0 0 -1 213.9079 7.174)" overflow="visible"/>
		
			<use xlink:href="#Female_Header"  width="9" height="8.999" x="-4.5" y="-4.499" transform="matrix(1 0 0 -1 204.9074 7.1727)" overflow="visible"/>
		
			<use xlink:href="#Female_Header"  width="9" height="8.999" x="-4.5" y="-4.499" transform="matrix(1 0 0 -1 213.9079 16.1737)" overflow="visible"/>
		
			<use xlink:href="#Female_Header"  width="9" height="8.999" x="-4.5" y="-4.499" transform="matrix(1 0 0 -1 204.9074 16.1724)" overflow="visible"/>
		
			<use xlink:href="#Female_Header"  width="9" height="8.999" x="-4.5" y="-4.499" transform="matrix(1 0 0 -1 231.9077 7.174)" overflow="visible"/>
		
			<use xlink:href="#Female_Header"  width="9" height="8.999" x="-4.5" y="-4.499" transform="matrix(1 0 0 -1 222.9072 7.1727)" overflow="visible"/>
		
			<use xlink:href="#Female_Header"  width="9" height="8.999" x="-4.5" y="-4.499" transform="matrix(1 0 0 -1 231.9077 16.1737)" overflow="visible"/>
		
			<use xlink:href="#Female_Header"  width="9" height="8.999" x="-4.5" y="-4.499" transform="matrix(1 0 0 -1 222.9072 16.1724)" overflow="visible"/>
		
			<use xlink:href="#Female_Header"  width="9" height="8.999" x="-4.5" y="-4.499" transform="matrix(1 0 0 -1 249.9074 7.174)" overflow="visible"/>
		
			<use xlink:href="#Female_Header"  width="9" height="8.999" x="-4.5" y="-4.499" transform="matrix(1 0 0 -1 240.907 7.1727)" overflow="visible"/>
		
			<use xlink:href="#Female_Header"  width="9" height="8.999" x="-4.5" y="-4.499" transform="matrix(1 0 0 -1 249.9074 16.1737)" overflow="visible"/>
		
			<use xlink:href="#Female_Header"  width="9" height="8.999" x="-4.5" y="-4.499" transform="matrix(1 0 0 -1 240.907 16.1724)" overflow="visible"/>
		
			<use xlink:href="#Female_Header"  width="9" height="8.999" x="-4.5" y="-4.499" transform="matrix(1 0 0 -1 267.9072 7.174)" overflow="visible"/>
		
			<use xlink:href="#Female_Header"  width="9" height="8.999" x="-4.5" y="-4.499" transform="matrix(1 0 0 -1 258.9067 7.1727)" overflow="visible"/>
		
			<use xlink:href="#Female_Header"  width="9" height="8.999" x="-4.5" y="-4.499" transform="matrix(1 0 0 -1 267.9072 16.1737)" overflow="visible"/>
		
			<use xlink:href="#Female_Header"  width="9" height="8.999" x="-4.5" y="-4.499" transform="matrix(1 0 0 -1 276.909 7.174)" overflow="visible"/>
		
			<use xlink:href="#Female_Header"  width="9" height="8.999" x="-4.5" y="-4.499" transform="matrix(1 0 0 -1 276.909 16.1737)" overflow="visible"/>
		
			<use xlink:href="#Female_Header"  width="9" height="8.999" x="-4.5" y="-4.499" transform="matrix(1 0 0 -1 258.9067 16.1724)" overflow="visible"/>
	</g>
	<circle fill="#E3DBDB" cx="236.331" cy="156.258" r="9.923"/>
</g>
<g id="Layer_3">
	<g>
		<rect x="199.143" y="48.098" fill="none" width="19.172" height="73.126"/>
		
			<text transform="matrix(4.035735e-07 -1 1 1.450783e-06 209.276 121.2251)" fill="none" stroke="#FFFFFF" stroke-width="0.41" font-family="'VAGRoundedStd-Bold'" font-size="13.1604">beaglebone</text>
		<g>
			<path fill="#231F20" d="M204.982,135.019c-0.054,0-0.109-0.001-0.163-0.003C204.873,135.019,204.927,135.02,204.982,135.019z"/>
			<path fill="#231F20" d="M204.655,135.007c-0.6-0.048-1.204-0.239-1.836-0.651c-0.065-0.065-0.127-0.127-0.188-0.187
				c0.061,0.06,0.123,0.122,0.188,0.187C203.451,134.768,204.055,134.96,204.655,135.007z"/>
			<path fill="#231F20" d="M201.33,133.24c0.144,0.045,0.28,0.105,0.411,0.183C201.609,133.345,201.474,133.285,201.33,133.24z"/>
			<path fill="#FFFFFF" d="M210.108,129.569c-0.192-0.513-0.385-1.047-0.577-1.582c0.214-0.256,0.556-0.472,0.641-0.812
				c0.478-1.894-1.56-2.351-2.992-1.774c-0.214,0-0.47-0.128-1.646-0.363c-1.689,0-2.736-0.513-3.27,1.411
				c-0.876,1.026-1.454,2.116-1.924,3.377c-1.753,0.727-3.185,1.368-4.168,3.078c-1.154,2.394-0.599,4.959,1.026,6.947
				c0.449,1.261,0.659,1.604,1.945,2.202c2.358,1.096,2.388,0.931,4.728,1.978c0.099,0.045,0.908,0.354,1.172,0.375
				c0.511,0.041,0.938,0.018,1.473-0.07c0.234-0.001,1.05-0.139,1.499-0.465c0.821-0.598,1.774-1.838,1.774-2.907 M209.488,142.821
				c-0.1,0.089-0.164,0.196-0.171,0.299 M202.776,125.807c0.727,0.556,0.876,1.411,0.94,2.287
				C203.033,128.094,202.349,126.234,202.776,125.807z M198.566,141.004c-1.475-1.09-1.154-2.522,0.321-3.334
				c2.757-0.727,2.757-0.727,5.429-1.582c1.325-0.214,2.437-0.441,3.655,0.299c1.176,1.176,1.197,2.137,1.24,3.741
				C207.971,146.348,202.413,142.928,198.566,141.004z M209.36,126.255c0.113,0.214,0.114,0.428,0.064,0.62
				c-0.257,0.427-0.919,1.112-1.389,1.176c-0.214-0.684-0.556-1.261-0.941-1.881C207.714,125.358,208.804,125.486,209.36,126.255z
				 M209.681,140.192c-0.043-2.821-0.855-4.66-3.869-4.809c-0.367,0.047-0.74,0.099-1.133,0.171
				c-2.928,0.898-5.686,1.646-6.263,1.881c-0.705,0.385-0.941,0.791-1.282,1.475c-0.706-1.176-1.24-2.137-1.112-3.591
				c-0.064,0-0.064,0,0-0.427c0,0,0,0,0,0c0.299-1.731,1.176-3.249,2.864-3.954c0.085,0.962,0.77,1.325,1.304,0.406
				c0.077-0.256-0.036-0.876-0.073-0.976c0.15-0.021,0.33-0.051,0.48-0.093c-0.148,0.821-0.39,1.43-0.72,1.921
				c0.33-0.491,0.573-1.099,0.72-1.921c0.427-1.09,0.94-2.18,1.625-3.121c0.069,0.098-0.006,0.123,0.385,0.791
				c0.62,0.62,0.926,1.03,1.689,0.876c1.454-0.641,1.454-2.095,0.748-3.356c2.351,0.47,2.757,4.831,2.993,6.584
				c0.769,1.624,1.282-1.881,1.368-2.33c0.513,1.24,0.235,3.185,0.214,4.489c0.128,0.022,0.256,0.043,0.385,0.043
				c0.064-0.641,0.128-1.282,0.214-1.924c0,0,0,0,0,0c-0.086-0.705-0.15-1.432-0.214-2.159 M211.284,131.692 M199.412,131.107
				c0.107,0,0.195,0.111,0.195,0.248c0,0.137-0.087,0.248-0.195,0.248c-0.107,0-0.195-0.111-0.195-0.248
				C199.218,131.218,199.305,131.107,199.412,131.107z"/>
			<path fill="#B28D2F" d="M200.04,133.224c0.543-0.102,0.943-0.091,1.289,0.016C200.984,133.133,200.583,133.122,200.04,133.224
				c-1.368,0.577-2.715,1.347-4.019,2.095c0,0,0,0,0,0c0,0,0,0,0,0C197.326,134.57,198.672,133.801,200.04,133.224z"/>
			<path fill="#B28D2F" d="M201.74,133.422c0.291,0.173,0.566,0.426,0.89,0.747C202.306,133.848,202.032,133.595,201.74,133.422z"/>
			<path fill="#B28D2F" d="M210.087,137.691c0-1.603,0.235-3.463-1.881-3.463c-1.155,0.393-2.189,0.787-3.224,0.791
				c1.035-0.004,2.069-0.398,3.224-0.791C210.322,134.228,210.087,136.088,210.087,137.691"/>
			<path fill="#B28D2F" d="M211.284,131.692c-0.371,0.181-0.72,0.418-1.069,0.634c0,0,0,0,0,0
				C210.564,132.109,210.912,131.873,211.284,131.692z"/>
			<path fill="#FFFFFF" d="M200.928,134.912c-0.568-1.342-1.585-0.524-1.471,0.537c0.028,0.258,0.122,0.623,0.306,0.788
				c0.684,0.385,1.062-0.221,1.169-0.642C201.005,135.305,200.981,135.133,200.928,134.912z M200.107,135.628
				c0,0.151-0.096,0.273-0.215,0.273c-0.037,0-0.071-0.013-0.102-0.034c-0.009,0.002-0.017,0.005-0.027,0.006
				c-0.008-0.019-0.015-0.036-0.022-0.051c-0.04-0.05-0.064-0.118-0.064-0.195c0-0.151,0.096-0.273,0.215-0.273
				C200.011,135.355,200.107,135.477,200.107,135.628z"/>
			<path fill="#B28D2F" d="M199.876,132.195c-0.769,1.144-2.016,1.643-3.662,2.675c-0.064,0.021-0.128,0.021-0.192,0.021
				c0,0,0,0,0,0c0.064,0,0.128,0,0.192-0.021C197.86,133.837,199.107,133.338,199.876,132.195z"/>
			<path fill="#FFFFFF" d="M199.741,135.823c0.006,0.015,0.013,0.032,0.022,0.051c0.01-0.002,0.019-0.004,0.027-0.006
				C199.772,135.855,199.755,135.841,199.741,135.823z"/>
			<path fill="#FFFFFF" d="M199.412,131.602c0.107,0,0.195-0.111,0.195-0.248c0-0.137-0.087-0.248-0.195-0.248
				c-0.107,0-0.195,0.111-0.195,0.248C199.218,131.492,199.305,131.602,199.412,131.602z M199.527,131.215
				c0.021,0.107-0.06,0.154-0.039,0.239c-0.171,0.043-0.06,0.064-0.188-0.021C199.301,131.091,199.207,131.15,199.527,131.215z"/>
			<path fill="#FFFFFF" d="M199.489,131.454c-0.021-0.085,0.06-0.132,0.039-0.239c-0.321-0.064-0.227-0.124-0.227,0.218
				C199.429,131.518,199.318,131.497,199.489,131.454z"/>
			<path fill="#FFFFFF" d="M199.677,135.628c0,0.076,0.025,0.145,0.064,0.195c-0.042-0.103-0.04-0.132-0.021-0.355
				c0.043-0.043,0.085,0.034,0.15-0.008c0.085,0.064,0.077,0.077,0.162,0.12c0,0.107-0.013,0.081,0.009,0.167
				c-0.138,0.039-0.15,0.096-0.25,0.122c0.03,0.021,0.065,0.034,0.102,0.034c0.119,0,0.215-0.122,0.215-0.273
				s-0.096-0.273-0.215-0.273C199.773,135.355,199.677,135.477,199.677,135.628z"/>
			<path fill="#FFFFFF" d="M200.032,135.579c-0.085-0.043-0.077-0.056-0.162-0.12c-0.064,0.043-0.107-0.034-0.15,0.008
				c-0.019,0.223-0.021,0.252,0.021,0.355c0.014,0.018,0.031,0.033,0.049,0.045c0.101-0.026,0.113-0.083,0.25-0.122
				C200.019,135.66,200.032,135.686,200.032,135.579z"/>
		</g>
	</g>
</g>
</svg>
