<?xml version="1.0" encoding="utf-8"?>
<!-- Generator: Adobe Illustrator 17.1.0, SVG Export Plug-In . SVG Version: 6.00 Build 0)  -->
<!DOCTYPE svg PUBLIC "-//W3C//DTD SVG 1.1 Basic//EN" "http://www.w3.org/Graphics/SVG/1.1/DTD/svg11-basic.dtd">
<svg version="1.1" baseProfile="basic" xmlns="http://www.w3.org/2000/svg" xmlns:xlink="http://www.w3.org/1999/xlink" x="0px"
	 y="0px" width="32px" height="32px" viewBox="0 0 32 32" xml:space="preserve">
<g id="Layer_1">
	<g>
		<path fill="#5A595C" d="M27.62,4.382c2.021,2.02,3.031,4.346,3.031,6.978c0,2.822-1.168,5.399-3.505,7.735
			c-0.527,0.528-1.042,0.969-1.546,1.327c0.021-0.232,0.031-0.57,0.031-1.011c0-1.704-0.368-3.377-1.105-5.019
			c0.737-1.031,1.095-2.042,1.074-3.031c0-1.241-0.517-2.378-1.548-3.409s-2.168-1.549-3.409-1.549
			c-1.369,0-2.748,0.676-4.136,2.023c-0.485,0.525-0.852,1.009-1.105,1.453c1.537,0.483,2.915,1.337,4.136,2.555
			c1.431,1.411,2.368,3.031,2.809,4.864c0.441,1.83,0.326,3.641-0.348,5.429c-0.105,0.316-0.305,0.77-0.599,1.359
			c-0.863,1.64-2.147,3.093-3.851,4.356c-1.01,0.779-2.021,1.337-3.031,1.672c-1.01,0.36-2.063,0.538-3.157,0.538
			c-2.651,0-4.967-1.011-6.946-3.031c-2.126-2.126-3.146-4.541-3.062-7.244c0.084-2.706,1.263-5.194,3.536-7.468
			c0.4-0.4,0.916-0.841,1.548-1.324c-0.19,2.104,0.158,4.136,1.041,6.092c-0.757,1.073-1.1,2.168-1.026,3.283
			c0.074,1.117,0.573,2.148,1.5,3.095c1.074,1.031,2.21,1.546,3.41,1.546c1.347,0,2.725-0.673,4.136-2.02
			c1.052-1.031,1.704-2.2,1.957-3.505c0.253-1.115,0.01-2.346-0.726-3.695c-0.211-0.441-0.441-0.809-0.694-1.105
			c-0.126-0.146-0.242-0.271-0.348-0.377c0.316,2.42-0.2,4.42-1.546,5.998c-0.569-0.358-1.116-0.799-1.641-1.327
			c-2.126-2.126-3.147-4.541-3.062-7.244c0.084-2.706,1.263-5.194,3.536-7.468c2.336-2.336,4.893-3.505,7.672-3.505
			C23.274,1.35,25.6,2.362,27.62,4.382z"/>
	</g>
</g>

</svg>
