<?xml version="1.0" encoding="utf-8"?>
<!-- Generator: Adobe Illustrator 18.0.0, SVG Export Plug-In . SVG Version: 6.00 Build 0)  -->
<!DOCTYPE svg PUBLIC "-//W3C//DTD SVG 1.1//EN" "http://www.w3.org/Graphics/SVG/1.1/DTD/svg11.dtd">
<svg version="1.1" xmlns="http://www.w3.org/2000/svg" xmlns:xlink="http://www.w3.org/1999/xlink" x="0px" y="0px"
	 viewBox="0 0 106.022 48.333" enable-background="new 0 0 106.022 48.333" xml:space="preserve">
<g id="Layer_2" display="none" opacity="0.3">
</g>
<g id="Layer_3">
</g>
<g id="Recipes:list_1_">
</g>
<g id="Homepage_1_">
	<g display="none" opacity="0.3">
		<defs>
			<rect id="SVGID_63_" x="-125.226" y="-35.667" opacity="0.3" width="1188.912" height="564.5"/>
		</defs>
		<clipPath id="SVGID_2_" display="inline">
			<use xlink:href="#SVGID_63_"  overflow="visible"/>
		</clipPath>
		<g display="inline" clip-path="url(#SVGID_2_)">
			<defs>
				<rect id="SVGID_65_" x="-122.965" y="-543.169" width="1351.405" height="1519.501"/>
			</defs>
			<clipPath id="SVGID_3_">
				<use xlink:href="#SVGID_65_"  overflow="visible"/>
			</clipPath>
			<g clip-path="url(#SVGID_3_)">
				<polyline fill="none" stroke="#D1D3D4" stroke-width="2.2121" stroke-miterlimit="10" points="103.028,-184.383 
					109.161,-176.282 248.631,8.374 91.363,210.062 351.123,305.123 				"/>
				
					<line fill="none" stroke="#D1D3D4" stroke-width="2.2121" stroke-miterlimit="10" x1="109.162" y1="-184.383" x2="91.364" y2="217.807"/>
				
					<line fill="none" stroke="#D1D3D4" stroke-width="2.2121" stroke-miterlimit="10" x1="91.474" y1="215.244" x2="-122.965" y2="-42.417"/>
			</g>
		</g>
	</g>
	<g>
		<path fill="#EF4823" d="M12.001,16.805H3.985c-1.729,0-3.12-1.104-3.12-3.024c0-1.919,1.392-3.023,3.12-3.023h15.697
			c0.624,0,2.256,0.288,2.256,2.16c0,0.912-0.191,1.344-0.72,2.064L10.321,30.246h9.12c1.729,0,3.12,1.104,3.12,3.024
			c0,1.92-1.392,3.024-3.12,3.024H3.36c-1.536,0-2.832-0.768-2.832-2.352c0-0.768,0.384-1.488,0.624-1.873L12.001,16.805z"/>
		<path fill="#EF4823" d="M30.624,25.83c0.479,3.408,3.312,4.992,6.528,4.992c3.552,0,6-2.784,7.824-2.784
			c1.488,0,2.832,1.488,2.832,2.977c0,2.976-6.145,5.856-11.28,5.856c-7.777,0-12.961-5.665-12.961-13.297
			c0-7.008,5.088-13.393,12.385-13.393c7.488,0,12.433,6.816,12.433,12.577c0,2.064-0.912,3.072-3.024,3.072H30.624z M41.473,21.222
			c-0.384-3.024-2.305-5.28-5.521-5.28c-3.072,0-5.137,2.352-5.473,5.28H41.473z"/>
		<path fill="#EF4823" d="M52.511,16.805h-1.536c-1.872,0-3.024-1.152-3.024-3.024c0-1.728,1.296-3.023,3.024-3.023h1.536V6.629
			c0-2.304,1.44-3.84,3.456-3.84c2.017,0,3.456,1.536,3.456,3.84v4.128h1.969c1.776,0,3.312,0.816,3.312,3.023
			c0,2.161-1.536,3.024-3.312,3.024h-1.969v15.937c0,2.304-1.439,3.84-3.456,3.84c-2.016,0-3.456-1.536-3.456-3.84V16.805z"/>
		<path fill="#EF4823" d="M65.518,16.805h-1.536c-1.872,0-3.024-1.152-3.024-3.024c0-1.728,1.296-3.023,3.024-3.023h1.536V6.629
			c0-2.304,1.44-3.84,3.456-3.84c2.017,0,3.456,1.536,3.456,3.84v4.128h1.969c1.776,0,3.312,0.816,3.312,3.023
			c0,2.161-1.536,3.024-3.312,3.024H72.43v15.937c0,2.304-1.439,3.84-3.456,3.84c-2.016,0-3.456-1.536-3.456-3.84V16.805z"/>
		<path fill="#EF4823" d="M101.662,32.07c0,1.776,0,4.513-3.312,4.513c-2.017,0-2.833-1.104-3.312-2.928
			c-1.776,2.112-3.937,3.216-6.577,3.216c-6.48,0-11.425-5.521-11.425-13.297c0-7.584,5.089-13.393,11.425-13.393
			c2.545,0,5.041,1.008,6.577,3.168c0.191-1.68,1.632-2.88,3.312-2.88c3.312,0,3.312,2.736,3.312,4.512V32.07z M89.421,30.534
			c3.601,0,5.329-3.648,5.329-6.96c0-3.312-1.681-7.057-5.329-7.057c-3.792,0-5.472,3.745-5.472,7.057
			C83.949,26.886,85.677,30.534,89.421,30.534z"/>
	</g>
</g>
<g id="grid" display="none" opacity="0.71">
	<g id="Recipes:list" display="inline">
	</g>
	<g id="Mobile_Home" display="inline">
	</g>
	<g id="Homepage" display="inline">
		<g id="Baseline_3_" opacity="0.55">
			
				<line fill="#FFFFFF" stroke="#27AAE1" stroke-width="0.5" stroke-miterlimit="10" x1="-1.02" y1="0.333" x2="939.48" y2="0.333"/>
			
				<line fill="#FFFFFF" stroke="#27AAE1" stroke-width="0.5" stroke-miterlimit="10" x1="-1.02" y1="12.333" x2="939.48" y2="12.333"/>
			
				<line fill="#FFFFFF" stroke="#27AAE1" stroke-width="0.5" stroke-miterlimit="10" x1="-1.02" y1="24.333" x2="939.48" y2="24.333"/>
			
				<line fill="#FFFFFF" stroke="#27AAE1" stroke-width="0.5" stroke-miterlimit="10" x1="-1.02" y1="36.333" x2="939.48" y2="36.333"/>
			
				<line fill="#FFFFFF" stroke="#27AAE1" stroke-width="0.5" stroke-miterlimit="10" x1="-1.02" y1="48.333" x2="939.48" y2="48.333"/>
		</g>
		<g id="_x31_0s_1_" display="none">
			<g id="_x31_0s_6_">
				
					<line display="inline" fill="none" stroke="#39B54A" stroke-width="0.25" stroke-miterlimit="10" x1="73.431" y1="-35.667" x2="73.431" y2="4139.833"/>
				
					<line display="inline" fill="none" stroke="#39B54A" stroke-width="0.25" stroke-miterlimit="10" x1="96.146" y1="4139.833" x2="96.146" y2="-35.667"/>
			</g>
		</g>
		<g id="_x31_2s_3_">
			
				<line fill="none" stroke="#27AAE1" stroke-width="0.75" stroke-miterlimit="10" x1="56.622" y1="4139.833" x2="56.622" y2="-35.667"/>
			
				<line fill="none" stroke="#27AAE1" stroke-width="0.25" stroke-miterlimit="10" x1="-0.082" y1="-35.667" x2="-0.082" y2="4139.833"/>
			
				<line fill="none" stroke="#27AAE1" stroke-width="0.75" stroke-miterlimit="10" x1="80.178" y1="-35.667" x2="80.178" y2="4139.833"/>
		</g>
		<g id="Layer_8">
		</g>
	</g>
</g>
</svg>
